<?plantuml 1.2026.2?><svg xmlns="http://www.w3.org/2000/svg" xmlns:xlink="http://www.w3.org/1999/xlink" contentStyleType="text/css" data-diagram-type="DESCRIPTION" height="929px" preserveAspectRatio="none" style="width:672px;height:929px;background:#FFFFFF;" version="1.1" viewBox="0 0 672 929" width="672px" zoomAndPan="magnify"><defs/><g><!--cluster Zeni - Sistema Web para Gest?o Financeira Pessoal--><g class="cluster" data-qualified-name="Zeni - Sistema Web para Gest.o Financeira Pessoal" data-source-line="7" id="ent0005"><rect fill="none" height="883" rx="2.5" ry="2.5" style="stroke:#181818;stroke-width:1;" width="472" x="194" y="40.5"/><text fill="#000000" font-family="sans-serif" font-size="14" font-weight="bold" lengthAdjust="spacing" textLength="406.6084" x="226.6958" y="55.4951">Zeni - Sistema Web para Gest&#227;o Financeira Pessoal</text></g><!--entity UC_Cadastrar--><g class="entity" data-qualified-name="Zeni - Sistema Web para Gest.o Financeira Pessoal.UC_Cadastrar" data-source-line="9" id="ent0006"><ellipse cx="302.5752" cy="90.615" fill="#F1F1F1" rx="63.5752" ry="15.115" style="stroke:#181818;stroke-width:0.5;"/><text fill="#000000" font-family="sans-serif" font-size="14" lengthAdjust="spacing" textLength="89.6533" x="257.7485" y="95.2635">Cadastrar-se</text></g><!--entity UC_Autenticar--><g class="entity" data-qualified-name="Zeni - Sistema Web para Gest.o Financeira Pessoal.UC_Autenticar" data-source-line="10" id="ent0007"><ellipse cx="585.1236" cy="474.4247" fill="#F1F1F1" rx="65.1236" ry="15.4247" style="stroke:#181818;stroke-width:0.5;"/><text fill="#000000" font-family="sans-serif" font-size="14" lengthAdjust="spacing" textLength="93.7959" x="538.2257" y="479.0732">Autenticar-se</text></g><!--entity UC_Transacoes--><g class="entity" data-qualified-name="Zeni - Sistema Web para Gest.o Financeira Pessoal.UC_Transacoes" data-source-line="12" id="ent0008"><ellipse cx="302.6194" cy="393.3239" fill="#F1F1F1" rx="89.6194" ry="20.3239" style="stroke:#181818;stroke-width:0.5;"/><text fill="#000000" font-family="sans-serif" font-size="14" lengthAdjust="spacing" textLength="152.8789" x="226.1799" y="397.9723">Gerenciar Transa&#231;&#245;es</text></g><!--entity UC_Categorias--><g class="entity" data-qualified-name="Zeni - Sistema Web para Gest.o Financeira Pessoal.UC_Categorias" data-source-line="13" id="ent0009"><ellipse cx="302.331" cy="474.6112" fill="#F1F1F1" rx="81.831" ry="25.6112" style="stroke:#181818;stroke-width:0.5;"/><text fill="#000000" font-family="sans-serif" font-size="14" lengthAdjust="spacing" textLength="113.6338" x="245.5141" y="471.7339">Criar Categorias</text><text fill="#000000" font-family="sans-serif" font-size="14" lengthAdjust="spacing" textLength="104.5898" x="250.0361" y="488.0308">Personalizadas</text></g><!--entity UC_Cartoes--><g class="entity" data-qualified-name="Zeni - Sistema Web para Gest.o Financeira Pessoal.UC_Cartoes" data-source-line="14" id="ent0010"><ellipse cx="302.7106" cy="559.7024" fill="#F1F1F1" rx="85.7106" ry="24.2024" style="stroke:#181818;stroke-width:0.5;"/><text fill="#000000" font-family="sans-serif" font-size="14" lengthAdjust="spacing" textLength="127.1484" x="239.1364" y="558.9363">Gerenciar Cart&#245;es</text><text fill="#000000" font-family="sans-serif" font-size="14" lengthAdjust="spacing" textLength="72.9258" x="266.2477" y="575.2332">de Cr&#233;dito</text></g><!--entity UC_Faturas--><g class="entity" data-qualified-name="Zeni - Sistema Web para Gest.o Financeira Pessoal.UC_Faturas" data-source-line="15" id="ent0011"><ellipse cx="302.4661" cy="643.3076" fill="#F1F1F1" rx="86.4661" ry="24.8076" style="stroke:#181818;stroke-width:0.5;"/><text fill="#000000" font-family="sans-serif" font-size="14" lengthAdjust="spacing" textLength="124.749" x="240.0916" y="641.6137">Visualizar Faturas</text><text fill="#000000" font-family="sans-serif" font-size="14" lengthAdjust="spacing" textLength="93.0781" x="255.9271" y="657.9106">Consolidadas</text></g><!--entity UC_Limites--><g class="entity" data-qualified-name="Zeni - Sistema Web para Gest.o Financeira Pessoal.UC_Limites" data-source-line="16" id="ent0012"><ellipse cx="302.4059" cy="728.5829" fill="#F1F1F1" rx="70.4059" ry="24.5829" style="stroke:#181818;stroke-width:0.5;"/><text fill="#000000" font-family="sans-serif" font-size="14" lengthAdjust="spacing" textLength="101.7939" x="251.5089" y="727.2294">Definir Limites</text><text fill="#000000" font-family="sans-serif" font-size="14" lengthAdjust="spacing" textLength="70.0205" x="267.3956" y="743.5263">de Gastos</text></g><!--entity UC_Alertas--><g class="entity" data-qualified-name="Zeni - Sistema Web para Gest.o Financeira Pessoal.UC_Alertas" data-source-line="17" id="ent0013"><ellipse cx="302.6702" cy="806.634" fill="#F1F1F1" rx="78.6702" ry="18.134" style="stroke:#181818;stroke-width:0.5;"/><text fill="#000000" font-family="sans-serif" font-size="14" lengthAdjust="spacing" textLength="127.5313" x="238.9046" y="811.2825">Configurar Alertas</text></g><!--entity UC_Dashboard--><g class="entity" data-qualified-name="Zeni - Sistema Web para Gest.o Financeira Pessoal.UC_Dashboard" data-source-line="18" id="ent0014"><ellipse cx="302.6173" cy="160.4235" fill="#F1F1F1" rx="87.6173" ry="19.9235" style="stroke:#181818;stroke-width:0.5;"/><text fill="#000000" font-family="sans-serif" font-size="14" lengthAdjust="spacing" textLength="148.3262" x="228.4542" y="165.0719">Visualizar Dashboard</text></g><!--entity UC_Relatorios--><g class="entity" data-qualified-name="Zeni - Sistema Web para Gest.o Financeira Pessoal.UC_Relatorios" data-source-line="19" id="ent0015"><ellipse cx="302.3352" cy="234.267" fill="#F1F1F1" rx="81.8352" ry="18.767" style="stroke:#181818;stroke-width:0.5;"/><text fill="#000000" font-family="sans-serif" font-size="14" lengthAdjust="spacing" textLength="134.9824" x="234.844" y="238.9155">Exportar Relat&#243;rios</text></g><!--entity UC_Suporte--><g class="entity" data-qualified-name="Zeni - Sistema Web para Gest.o Financeira Pessoal.UC_Suporte" data-source-line="20" id="ent0016"><ellipse cx="302.6967" cy="313.4372" fill="#F1F1F1" rx="78.1967" ry="24.4372" style="stroke:#181818;stroke-width:0.5;"/><text fill="#000000" font-family="sans-serif" font-size="14" lengthAdjust="spacing" textLength="114.3311" x="245.5311" y="312.3069">Acessar Suporte</text><text fill="#000000" font-family="sans-serif" font-size="14" lengthAdjust="spacing" textLength="73.9512" x="265.7211" y="328.6038">e Tutoriais</text></g><!--entity UC_Parcerias--><g class="entity" data-qualified-name="Zeni - Sistema Web para Gest.o Financeira Pessoal.UC_Parcerias" data-source-line="22" id="ent0017"><ellipse cx="302.359" cy="883.654" fill="#F1F1F1" rx="92.359" ry="24.154" style="stroke:#181818;stroke-width:0.5;"/><text fill="#000000" font-family="sans-serif" font-size="14" lengthAdjust="spacing" textLength="137.6826" x="233.5177" y="882.9637">Gerenciar Parcerias</text><text fill="#000000" font-family="sans-serif" font-size="14" lengthAdjust="spacing" textLength="76.7061" x="264.006" y="899.2606">e An&#250;ncios</text></g><!--entity Visitante--><g class="entity" data-qualified-name="Visitante" data-source-line="3" id="ent0002"><ellipse cx="76.3472" cy="14" fill="#F1F1F1" rx="8" ry="8" style="stroke:#181818;stroke-width:0.5;"/><path d="M76.3472,22 L76.3472,49 M63.3472,30 L89.3472,30 M76.3472,49 L63.3472,64 M76.3472,49 L89.3472,64" fill="none" style="stroke:#181818;stroke-width:0.5;"/><text fill="#000000" font-family="sans-serif" font-size="14" lengthAdjust="spacing" textLength="61.6943" x="45.5" y="78.4951">Visitante</text></g><!--entity Usuario--><g class="entity" data-qualified-name="Usuario" data-source-line="4" id="ent0003"><ellipse cx="76.5947" cy="445" fill="#F1F1F1" rx="8" ry="8" style="stroke:#181818;stroke-width:0.5;"/><path d="M76.5947,453 L76.5947,480 M63.5947,461 L89.5947,461 M76.5947,480 L63.5947,495 M76.5947,480 L89.5947,495" fill="none" style="stroke:#181818;stroke-width:0.5;"/><text fill="#000000" font-family="sans-serif" font-size="14" lengthAdjust="spacing" textLength="141.1895" x="6" y="509.4951">Usu&#225;rio autenticado</text></g><!--entity Admin--><g class="entity" data-qualified-name="Admin" data-source-line="5" id="ent0004"><ellipse cx="76.54" cy="854" fill="#F1F1F1" rx="8" ry="8" style="stroke:#181818;stroke-width:0.5;"/><path d="M76.54,862 L76.54,889 M63.54,870 L89.54,870 M76.54,889 L63.54,904 M76.54,889 L89.54,904" fill="none" style="stroke:#181818;stroke-width:0.5;"/><text fill="#000000" font-family="sans-serif" font-size="14" lengthAdjust="spacing" textLength="99.0801" x="27" y="918.4951">Administrador</text></g><!--link Visitante to UC_Cadastrar--><g class="link" data-entity-1="ent0002" data-entity-2="ent0006" data-link-type="dependency" data-source-line="25" id="lnk18"><path d="M107.71,49.84 C145.33,57.73 204.138,70.0674 248.348,79.3474" fill="none" id="Visitante-to-UC_Cadastrar" style="stroke:#181818;stroke-width:1;"/><polygon fill="#181818" points="254.22,80.58,246.2337,74.8164,249.3266,79.5528,244.5902,82.6458,254.22,80.58" style="stroke:#181818;stroke-width:1;"/></g><!--link Visitante to UC_Autenticar--><g class="link" data-entity-1="ent0002" data-entity-2="ent0007" data-link-type="dependency" data-source-line="26" id="lnk19"><path d="M107.83,36.51 C167.21,24.53 301.15,6.03 395,57.5 C549.72,142.35 577.7862,387.6464 582.6262,452.8964" fill="none" id="Visitante-to-UC_Autenticar" style="stroke:#181818;stroke-width:1;"/><polygon fill="#181818" points="583.07,458.88,586.3933,449.6088,582.7001,453.8937,578.4152,450.2005,583.07,458.88" style="stroke:#181818;stroke-width:1;"/></g><!--link Usuario to UC_Transacoes--><g class="link" data-entity-1="ent0003" data-entity-2="ent0008" data-link-type="dependency" data-source-line="28" id="lnk20"><path d="M147.01,446.24 C159.92,441.2 173.33,436.09 186,431.5 C206.44,424.09 223.4237,418.3541 243.2437,411.9141" fill="none" id="Usuario-to-UC_Transacoes" style="stroke:#181818;stroke-width:1;"/><polygon fill="#181818" points="248.95,410.06,239.1544,409.037,244.1947,411.6051,241.6266,416.6454,248.95,410.06" style="stroke:#181818;stroke-width:1;"/></g><!--link Usuario to UC_Categorias--><g class="link" data-entity-1="ent0003" data-entity-2="ent0009" data-link-type="dependency" data-source-line="29" id="lnk21"><path d="M147.15,474.5 C170.26,474.5 190.2,474.5 214.13,474.5" fill="none" id="Usuario-to-UC_Categorias" style="stroke:#181818;stroke-width:1;"/><polygon fill="#181818" points="220.13,474.5,211.13,470.5,215.13,474.5,211.13,478.5,220.13,474.5" style="stroke:#181818;stroke-width:1;"/></g><!--link Usuario to UC_Cartoes--><g class="link" data-entity-1="ent0003" data-entity-2="ent0010" data-link-type="dependency" data-source-line="30" id="lnk22"><path d="M147.13,502.44 C160.03,507.51 173.4,512.71 186,517.5 C206.44,525.27 223.3868,531.5117 243.1268,538.6417" fill="none" id="Usuario-to-UC_Cartoes" style="stroke:#181818;stroke-width:1;"/><polygon fill="#181818" points="248.77,540.68,241.6641,533.8605,244.0674,538.9814,238.9464,541.3847,248.77,540.68" style="stroke:#181818;stroke-width:1;"/></g><!--link Usuario to UC_Faturas--><g class="link" data-entity-1="ent0003" data-entity-2="ent0011" data-link-type="dependency" data-source-line="31" id="lnk23"><path d="M102.45,512.69 C122.24,540.36 152.12,576.91 186,600.5 C201.8,611.5 215.1295,618.0343 233.0795,624.5443" fill="none" id="Usuario-to-UC_Faturas" style="stroke:#181818;stroke-width:1;"/><polygon fill="#181818" points="238.72,626.59,231.623,619.7612,234.0196,624.8853,228.8955,627.2818,238.72,626.59" style="stroke:#181818;stroke-width:1;"/></g><!--link Usuario to UC_Limites--><g class="link" data-entity-1="ent0003" data-entity-2="ent0012" data-link-type="dependency" data-source-line="32" id="lnk24"><path d="M87.77,512.55 C102.25,559.38 133.02,638.46 186,685.5 C201.84,699.56 217.005,707.2913 236.635,713.8013" fill="none" id="Usuario-to-UC_Limites" style="stroke:#181818;stroke-width:1;"/><polygon fill="#181818" points="242.33,715.69,235.0466,709.0603,237.5842,714.1161,232.5284,716.6537,242.33,715.69" style="stroke:#181818;stroke-width:1;"/></g><!--link Usuario to UC_Alertas--><g class="link" data-entity-1="ent0003" data-entity-2="ent0013" data-link-type="dependency" data-source-line="33" id="lnk25"><path d="M80.8,512.54 C88.27,575.19 112.07,700.12 186,770.5 C199.54,783.39 211.8693,789.9583 229.7093,795.2683" fill="none" id="Usuario-to-UC_Alertas" style="stroke:#181818;stroke-width:1;"/><polygon fill="#181818" points="235.46,796.98,227.9751,790.5787,230.6678,795.5536,225.6929,798.2463,235.46,796.98" style="stroke:#181818;stroke-width:1;"/></g><!--link Usuario to UC_Dashboard--><g class="link" data-entity-1="ent0003" data-entity-2="ent0014" data-link-type="dependency" data-source-line="34" id="lnk26"><path d="M82.05,436.04 C91.11,376.56 116.9,262.36 186,197.5 C198.59,185.68 209.2665,179.5332 225.7165,174.0632" fill="none" id="Usuario-to-UC_Dashboard" style="stroke:#181818;stroke-width:1;"/><polygon fill="#181818" points="231.41,172.17,221.6076,171.2142,226.6654,173.7477,224.1319,178.8055,231.41,172.17" style="stroke:#181818;stroke-width:1;"/></g><!--link Usuario to UC_Relatorios--><g class="link" data-entity-1="ent0003" data-entity-2="ent0015" data-link-type="dependency" data-source-line="35" id="lnk27"><path d="M88.21,436.29 C102.92,390.69 133.67,315.13 186,271.5 C200.39,259.5 213.0071,253.1404 230.8171,247.6404" fill="none" id="Usuario-to-UC_Relatorios" style="stroke:#181818;stroke-width:1;"/><polygon fill="#181818" points="236.55,245.87,226.7704,244.7037,231.7726,247.3453,229.131,252.3475,236.55,245.87" style="stroke:#181818;stroke-width:1;"/></g><!--link Usuario to UC_Suporte--><g class="link" data-entity-1="ent0003" data-entity-2="ent0016" data-link-type="dependency" data-source-line="36" id="lnk28"><path d="M104.33,436.48 C124.29,410.59 153.6,377.2 186,355.5 C202.84,344.22 217.4163,337.4816 236.2263,331.0116" fill="none" id="Usuario-to-UC_Suporte" style="stroke:#181818;stroke-width:1;"/><polygon fill="#181818" points="241.9,329.06,232.0883,328.2049,237.1719,330.6863,234.6904,335.7699,241.9,329.06" style="stroke:#181818;stroke-width:1;"/></g><!--link Admin to UC_Parcerias--><g class="link" data-entity-1="ent0004" data-entity-2="ent0017" data-link-type="dependency" data-source-line="38" id="lnk29"><path d="M126.1,883.5 C150.55,883.5 175.01,883.5 203.65,883.5" fill="none" id="Admin-to-UC_Parcerias" style="stroke:#181818;stroke-width:1;"/><polygon fill="#181818" points="209.65,883.5,200.65,879.5,204.65,883.5,200.65,887.5,209.65,883.5" style="stroke:#181818;stroke-width:1;"/></g><!--link UC_Transacoes to UC_Autenticar--><g class="link" data-entity-1="ent0008" data-entity-2="ent0007" data-link-type="dependency" data-source-line="40" id="lnk30"><path d="M358.92,409.5 C413.04,425.13 488.4057,446.8949 537.0457,460.9449" fill="none" id="UC_Transacoes-to-UC_Autenticar" style="stroke:#181818;stroke-width:1;stroke-dasharray:7,7;"/><polygon fill="#181818" points="542.81,462.61,535.2735,456.2695,538.0064,461.2224,533.0535,463.9553,542.81,462.61" style="stroke:#181818;stroke-width:1;"/><text fill="#000000" font-family="sans-serif" font-size="13" lengthAdjust="spacing" textLength="63.0068" x="426" y="425.5669">&#171;include&#187;</text></g><!--link UC_Categorias to UC_Autenticar--><g class="link" data-entity-1="ent0009" data-entity-2="ent0007" data-link-type="dependency" data-source-line="41" id="lnk31"><path d="M384.63,474.5 C427.67,474.5 473.8,474.5 513.96,474.5" fill="none" id="UC_Categorias-to-UC_Autenticar" style="stroke:#181818;stroke-width:1;stroke-dasharray:7,7;"/><polygon fill="#181818" points="519.96,474.5,510.96,470.5,514.96,474.5,510.96,478.5,519.96,474.5" style="stroke:#181818;stroke-width:1;"/><text fill="#000000" font-family="sans-serif" font-size="13" lengthAdjust="spacing" textLength="63.0068" x="426" y="470.5669">&#171;include&#187;</text></g><!--link UC_Cartoes to UC_Autenticar--><g class="link" data-entity-1="ent0010" data-entity-2="ent0007" data-link-type="dependency" data-source-line="42" id="lnk32"><path d="M361.28,541.99 C415.81,525.47 490.3879,502.8703 538.1979,488.3803" fill="none" id="UC_Cartoes-to-UC_Autenticar" style="stroke:#181818;stroke-width:1;stroke-dasharray:7,7;"/><polygon fill="#181818" points="543.94,486.64,534.1667,485.4224,539.1549,488.0902,536.4871,493.0785,543.94,486.64" style="stroke:#181818;stroke-width:1;"/><text fill="#000000" font-family="sans-serif" font-size="13" lengthAdjust="spacing" textLength="63.0068" x="426" y="500.5669">&#171;include&#187;</text></g><!--link UC_Faturas to UC_Autenticar--><g class="link" data-entity-1="ent0011" data-entity-2="ent0007" data-link-type="dependency" data-source-line="43" id="lnk33"><path d="M349.88,622.47 C364.43,615.66 380.48,607.95 395,600.5 C438.02,578.43 449.68,574.18 490,547.5 C517.74,529.14 543.1615,508.8421 561.6215,493.4521" fill="none" id="UC_Faturas-to-UC_Autenticar" style="stroke:#181818;stroke-width:1;stroke-dasharray:7,7;"/><polygon fill="#181818" points="566.23,489.61,556.7558,492.3008,562.3896,492.8117,561.8786,498.4455,566.23,489.61" style="stroke:#181818;stroke-width:1;"/><text fill="#000000" font-family="sans-serif" font-size="13" lengthAdjust="spacing" textLength="63.0068" x="426" y="543.5669">&#171;include&#187;</text></g><!--link UC_Limites to UC_Autenticar--><g class="link" data-entity-1="ent0012" data-entity-2="ent0007" data-link-type="dependency" data-source-line="44" id="lnk34"><path d="M348.79,709.7 C363.88,702.8 380.52,694.45 395,685.5 C440.75,657.21 453.19,649.73 490,610.5 C526.92,571.15 557.3257,521.4552 572.4557,495.0652" fill="none" id="UC_Limites-to-UC_Autenticar" style="stroke:#181818;stroke-width:1;stroke-dasharray:7,7;"/><polygon fill="#181818" points="575.44,489.86,567.4935,495.6783,572.9531,494.1977,574.4337,499.6573,575.44,489.86" style="stroke:#181818;stroke-width:1;"/><text fill="#000000" font-family="sans-serif" font-size="13" lengthAdjust="spacing" textLength="63.0068" x="426" y="606.5669">&#171;include&#187;</text></g><!--link UC_Alertas to UC_Autenticar--><g class="link" data-entity-1="ent0013" data-entity-2="ent0007" data-link-type="dependency" data-source-line="45" id="lnk35"><path d="M349.08,791.9 C364.19,786.2 380.78,778.98 395,770.5 C442.42,742.25 457.01,734.75 490,690.5 C539.5,624.11 567.907,533.3819 578.287,495.9419" fill="none" id="UC_Alertas-to-UC_Autenticar" style="stroke:#181818;stroke-width:1;stroke-dasharray:7,7;"/><polygon fill="#181818" points="579.89,490.16,573.6309,497.7642,578.5542,494.9783,581.3401,499.9015,579.89,490.16" style="stroke:#181818;stroke-width:1;"/><text fill="#000000" font-family="sans-serif" font-size="13" lengthAdjust="spacing" textLength="63.0068" x="426" y="686.5669">&#171;include&#187;</text></g><!--link UC_Dashboard to UC_Autenticar--><g class="link" data-entity-1="ent0014" data-entity-2="ent0007" data-link-type="dependency" data-source-line="46" id="lnk36"><path d="M353.53,176.93 C395.57,193.17 454.34,221.94 490,265.5 C540.91,327.68 568.4434,416.0681 578.4434,453.0381" fill="none" id="UC_Dashboard-to-UC_Autenticar" style="stroke:#181818;stroke-width:1;stroke-dasharray:7,7;"/><polygon fill="#181818" points="580.01,458.83,581.5213,449.0978,578.7045,454.0034,573.7988,451.1866,580.01,458.83" style="stroke:#181818;stroke-width:1;"/><text fill="#000000" font-family="sans-serif" font-size="13" lengthAdjust="spacing" textLength="63.0068" x="426" y="209.5669">&#171;include&#187;</text></g><!--link UC_Relatorios to UC_Autenticar--><g class="link" data-entity-1="ent0015" data-entity-2="ent0007" data-link-type="dependency" data-source-line="47" id="lnk37"><path d="M349.38,250.11 C364.35,255.97 380.78,263.24 395,271.5 C441.51,298.52 452.63,307.8 490,346.5 C525.43,383.19 555.5576,428.6135 571.3176,453.8035" fill="none" id="UC_Relatorios-to-UC_Autenticar" style="stroke:#181818;stroke-width:1;stroke-dasharray:7,7;"/><polygon fill="#181818" points="574.5,458.89,573.1175,449.1387,571.848,454.6512,566.3355,453.3818,574.5,458.89" style="stroke:#181818;stroke-width:1;"/><text fill="#000000" font-family="sans-serif" font-size="13" lengthAdjust="spacing" textLength="63.0068" x="426" y="286.5669">&#171;include&#187;</text></g><!--link UC_Suporte to UC_Autenticar--><g class="link" data-entity-1="ent0016" data-entity-2="ent0007" data-link-type="dependency" data-source-line="48" id="lnk38"><path d="M348.37,333.6 C363.28,340.41 379.91,348.15 395,355.5 C437.71,376.3 449.7,379.34 490,404.5 C517.62,421.74 542.7529,441.0217 561.2329,455.8717" fill="none" id="UC_Suporte-to-UC_Autenticar" style="stroke:#181818;stroke-width:1;stroke-dasharray:7,7;"/><polygon fill="#181818" points="565.91,459.63,561.4,450.8744,562.0125,456.498,556.3889,457.1105,565.91,459.63" style="stroke:#181818;stroke-width:1;"/><text fill="#000000" font-family="sans-serif" font-size="13" lengthAdjust="spacing" textLength="63.0068" x="426" y="367.5669">&#171;include&#187;</text></g><!--link UC_Parcerias to UC_Autenticar--><g class="link" data-entity-1="ent0017" data-entity-2="ent0007" data-link-type="dependency" data-source-line="49" id="lnk39"><path d="M361.42,864.93 C403.37,848.5 458.11,820.39 490,777.5 C559.51,684.02 577.776,544.1644 582.216,496.2844" fill="none" id="UC_Parcerias-to-UC_Autenticar" style="stroke:#181818;stroke-width:1;stroke-dasharray:7,7;"/><polygon fill="#181818" points="582.77,490.31,577.9561,498.9022,582.3083,495.2886,585.9219,499.6409,582.77,490.31" style="stroke:#181818;stroke-width:1;"/><text fill="#000000" font-family="sans-serif" font-size="13" lengthAdjust="spacing" textLength="63.0068" x="426" y="773.5669">&#171;include&#187;</text></g><?plantuml-src ZLDDQzmm4BthLmnxt_o04XOMfzbB3qkJj10MoaIUtGnufJ2I8QJanuGSIi-bbrxznofx9VaZ3VNDVk-DtcZUgAAz1sz1-73leMGXxTaQfL1xAx3umeuz6ayBG0VvBz4thcvUX2rWxSburbZQJXa837ZIhSiZ6tPU0Y-Te4EKQltG72g2nIqPXYLS1HaT4RxI7JoW86p8-URLmYKRD9euG5jopcArWEzA0TIEDBfmGe4bjXwoTAT-Rufl6HiArwdReR87HuTkICXeHe5hGUEm-T7y9fUAJfYsv4QDIAilqDF1Xa-tCriIPmrM_DJsqpUN5FzsB51ywxOp9K4XpS-IlUsBnKzyGpvrvo5mYRwMrhcmnjcAow5l98Ub5xGF2GbyuYFxwBW9axEvA3AZUrgpvqCuIc1TaVZU8Vw-qzm5klixYr8cUGQ61HyV7smuHE0pLUYRNs6VylaTP5jabAiEYn4AhkgsadQ6uBfkPSYvCdBlPBn5qNIAZ61jcZy1xbqpgvwLoey1bilLUDNUKCFTYayZKOCDcZ23xNZ3dAAVm2dM2Po2cy0feWdSHp4X1YEVC7catQDEQ3yiDRecd9rDPW8VuFoSZQxgabOhDRhwF7KtZZdIEA8vqZYsET8uoZdIFDuvudxaSzGnXZdIdCt_n7y1?></g></svg>