<?plantuml 1.2026.2?><svg xmlns="http://www.w3.org/2000/svg" xmlns:xlink="http://www.w3.org/1999/xlink" contentStyleType="text/css" data-diagram-type="CLASS" height="1185px" preserveAspectRatio="none" style="width:1466px;height:1185px;background:#FFFFFF;" version="1.1" viewBox="0 0 1466 1185" width="1466px" zoomAndPan="magnify"><defs/><g><!--class UsuarioEntity--><g class="entity" data-qualified-name="UsuarioEntity" data-source-line="4" id="ent0002"><rect fill="#F1F1F1" height="178.375" rx="2.5" ry="2.5" style="stroke:#181818;stroke-width:0.5;" width="313.3691" x="7" y="564.04"/><ellipse cx="112.3965" cy="580.04" fill="#ADD1B2" rx="11" ry="11" style="stroke:#181818;stroke-width:1;"/><path d="M115.3652,585.6806 Q114.7871,585.9775 114.1465,586.1181 Q113.5059,586.2744 112.8027,586.2744 Q110.3027,586.2744 108.9746,584.6338 Q107.6621,582.9775 107.6621,579.8525 Q107.6621,576.7275 108.9746,575.0713 Q110.3027,573.415 112.8027,573.415 Q113.5059,573.415 114.1465,573.5713 Q114.8027,573.7275 115.3652,574.0244 L115.3652,576.7431 Q114.7402,576.165 114.1465,575.8994 Q113.5527,575.6181 112.9277,575.6181 Q111.584,575.6181 110.8965,576.6963 Q110.209,577.7588 110.209,579.8525 Q110.209,581.9463 110.8965,583.0244 Q111.584,584.0869 112.9277,584.0869 Q113.5527,584.0869 114.1465,583.8213 Q114.7402,583.54 115.3652,582.9619 L115.3652,585.6806 Z " fill="#000000"/><text fill="#000000" font-family="sans-serif" font-size="14" lengthAdjust="spacing" textLength="94.0762" x="132.8965" y="584.8867">UsuarioEntity</text><line style="stroke:#181818;stroke-width:0.5;" x1="8" x2="319.3691" y1="596.04" y2="596.04"/><text fill="#000000" font-family="sans-serif" font-size="14" lengthAdjust="spacing" textLength="61.1201" x="13" y="613.0351">-id: Long</text><text fill="#000000" font-family="sans-serif" font-size="14" lengthAdjust="spacing" textLength="95.6895" x="13" y="629.332">-nome: String</text><text fill="#000000" font-family="sans-serif" font-size="14" lengthAdjust="spacing" textLength="94.6094" x="13" y="645.6289">-email: String</text><text fill="#000000" font-family="sans-serif" font-size="14" lengthAdjust="spacing" textLength="98.2324" x="13" y="661.9257">-senha: String</text><text fill="#000000" font-family="sans-serif" font-size="14" lengthAdjust="spacing" textLength="177.3516" x="13" y="678.2226">-tipoUsuario: TipoUsuario</text><line style="stroke:#181818;stroke-width:0.5;" x1="8" x2="319.3691" y1="685.5244" y2="685.5244"/><text fill="#000000" font-family="sans-serif" font-size="14" lengthAdjust="spacing" textLength="237.2002" x="13" y="702.5195">+addCartao(cartao: CartaoEntity)</text><text fill="#000000" font-family="sans-serif" font-size="14" lengthAdjust="spacing" textLength="220.8145" x="13" y="718.8164">+addConta(conta: ContaEntity)</text><text fill="#000000" font-family="sans-serif" font-size="14" lengthAdjust="spacing" textLength="301.3691" x="13" y="735.1132">+addCategoria(categoria: CategoriaEntity)</text></g><!--class CarteiraEntity--><g class="entity" data-qualified-name="CarteiraEntity" data-source-line="15" id="ent0003"><rect fill="#F1F1F1" height="113.1875" rx="2.5" ry="2.5" style="stroke:#181818;stroke-width:0.5;" width="325.4072" x="427" y="103.54"/><ellipse cx="536.7988" cy="119.54" fill="#ADD1B2" rx="11" ry="11" style="stroke:#181818;stroke-width:1;"/><path d="M539.7676,125.1806 Q539.1895,125.4775 538.5488,125.6181 Q537.9082,125.7744 537.2051,125.7744 Q534.7051,125.7744 533.377,124.1337 Q532.0645,122.4775 532.0645,119.3525 Q532.0645,116.2275 533.377,114.5712 Q534.7051,112.915 537.2051,112.915 Q537.9082,112.915 538.5488,113.0712 Q539.2051,113.2275 539.7676,113.5244 L539.7676,116.2431 Q539.1426,115.665 538.5488,115.3994 Q537.9551,115.1181 537.3301,115.1181 Q535.9863,115.1181 535.2988,116.1962 Q534.6113,117.2587 534.6113,119.3525 Q534.6113,121.4462 535.2988,122.5244 Q535.9863,123.5869 537.3301,123.5869 Q537.9551,123.5869 538.5488,123.3212 Q539.1426,123.04 539.7676,122.4619 L539.7676,125.1806 Z " fill="#000000"/><text fill="#000000" font-family="sans-serif" font-size="14" lengthAdjust="spacing" textLength="97.3096" x="557.2988" y="124.3867">CarteiraEntity</text><line style="stroke:#181818;stroke-width:0.5;" x1="428" x2="751.4072" y1="135.54" y2="135.54"/><text fill="#000000" font-family="sans-serif" font-size="14" lengthAdjust="spacing" textLength="61.1201" x="433" y="152.5351">-id: Long</text><text fill="#000000" font-family="sans-serif" font-size="14" lengthAdjust="spacing" textLength="95.7031" x="433" y="168.832">-name: String</text><text fill="#000000" font-family="sans-serif" font-size="14" lengthAdjust="spacing" textLength="130.9014" x="433" y="185.1289">-saldo: BigDecimal</text><line style="stroke:#181818;stroke-width:0.5;" x1="428" x2="751.4072" y1="192.4306" y2="192.4306"/><text fill="#000000" font-family="sans-serif" font-size="14" lengthAdjust="spacing" textLength="313.4072" x="433" y="209.4257">+addTransacao(transacao: TransacaoEntity)</text></g><!--class ContaEntity--><g class="entity" data-qualified-name="ContaEntity" data-source-line="22" id="ent0004"><rect fill="#F1F1F1" height="129.4844" rx="2.5" ry="2.5" style="stroke:#181818;stroke-width:0.5;" width="332.7354" x="423" y="251.54"/><ellipse cx="544.0405" cy="267.54" fill="#ADD1B2" rx="11" ry="11" style="stroke:#181818;stroke-width:1;"/><path d="M547.0093,273.1806 Q546.4312,273.4775 545.7905,273.6181 Q545.1499,273.7744 544.4468,273.7744 Q541.9468,273.7744 540.6187,272.1337 Q539.3062,270.4775 539.3062,267.3525 Q539.3062,264.2275 540.6187,262.5712 Q541.9468,260.915 544.4468,260.915 Q545.1499,260.915 545.7905,261.0712 Q546.4468,261.2275 547.0093,261.5244 L547.0093,264.2431 Q546.3843,263.665 545.7905,263.3994 Q545.1968,263.1181 544.5718,263.1181 Q543.228,263.1181 542.5405,264.1962 Q541.853,265.2587 541.853,267.3525 Q541.853,269.4462 542.5405,270.5244 Q543.228,271.5869 544.5718,271.5869 Q545.1968,271.5869 545.7905,271.3212 Q546.3843,271.04 547.0093,270.4619 L547.0093,273.1806 Z " fill="#000000"/><text fill="#000000" font-family="sans-serif" font-size="14" lengthAdjust="spacing" textLength="82.1543" x="564.5405" y="272.3867">ContaEntity</text><line style="stroke:#181818;stroke-width:0.5;" x1="424" x2="754.7354" y1="283.54" y2="283.54"/><text fill="#000000" font-family="sans-serif" font-size="14" lengthAdjust="spacing" textLength="61.1201" x="429" y="300.5351">-id: Long</text><text fill="#000000" font-family="sans-serif" font-size="14" lengthAdjust="spacing" textLength="95.6895" x="429" y="316.832">-nome: String</text><text fill="#000000" font-family="sans-serif" font-size="14" lengthAdjust="spacing" textLength="139.7949" x="429" y="333.1289">-gastos: BigDecimal</text><line style="stroke:#181818;stroke-width:0.5;" x1="424" x2="754.7354" y1="340.4306" y2="340.4306"/><text fill="#000000" font-family="sans-serif" font-size="14" lengthAdjust="spacing" textLength="320.7354" x="429" y="357.4257">+addTransacoes(transacao: TransacaoEntity)</text><text fill="#000000" font-family="sans-serif" font-size="14" lengthAdjust="spacing" textLength="255.8828" x="429" y="373.7226">+somaValorTotal(valor: BigDecimal)</text></g><!--class CategoriaEntity--><g class="entity" data-qualified-name="CategoriaEntity" data-source-line="30" id="ent0005"><rect fill="#F1F1F1" height="96.8906" rx="2.5" ry="2.5" style="stroke:#181818;stroke-width:0.5;" width="141.0059" x="519" y="761.54"/><ellipse cx="534" cy="777.54" fill="#ADD1B2" rx="11" ry="11" style="stroke:#181818;stroke-width:1;"/><path d="M536.9688,783.1806 Q536.3906,783.4775 535.75,783.6181 Q535.1094,783.7744 534.4063,783.7744 Q531.9063,783.7744 530.5781,782.1338 Q529.2656,780.4775 529.2656,777.3525 Q529.2656,774.2275 530.5781,772.5713 Q531.9063,770.915 534.4063,770.915 Q535.1094,770.915 535.75,771.0713 Q536.4063,771.2275 536.9688,771.5244 L536.9688,774.2431 Q536.3438,773.665 535.75,773.3994 Q535.1563,773.1181 534.5313,773.1181 Q533.1875,773.1181 532.5,774.1963 Q531.8125,775.2588 531.8125,777.3525 Q531.8125,779.4463 532.5,780.5244 Q533.1875,781.5869 534.5313,781.5869 Q535.1563,781.5869 535.75,781.3213 Q536.3438,781.04 536.9688,780.4619 L536.9688,783.1806 Z " fill="#000000"/><text fill="#000000" font-family="sans-serif" font-size="14" lengthAdjust="spacing" textLength="109.0059" x="548" y="782.3867">CategoriaEntity</text><line style="stroke:#181818;stroke-width:0.5;" x1="520" x2="659.0059" y1="793.54" y2="793.54"/><text fill="#000000" font-family="sans-serif" font-size="14" lengthAdjust="spacing" textLength="61.1201" x="525" y="810.5351">-id: Long</text><text fill="#000000" font-family="sans-serif" font-size="14" lengthAdjust="spacing" textLength="95.6895" x="525" y="826.832">-nome: String</text><text fill="#000000" font-family="sans-serif" font-size="14" lengthAdjust="spacing" textLength="119.4443" x="525" y="843.1289">-padrao: boolean</text><line style="stroke:#181818;stroke-width:0.5;" x1="520" x2="659.0059" y1="850.4306" y2="850.4306"/></g><!--class CartaoEntity--><g class="entity" data-qualified-name="CartaoEntity" data-source-line="36" id="ent0006"><rect fill="#F1F1F1" height="145.7813" rx="2.5" ry="2.5" style="stroke:#181818;stroke-width:0.5;" width="332.7354" x="423" y="580.04"/><ellipse cx="541.3096" cy="596.04" fill="#ADD1B2" rx="11" ry="11" style="stroke:#181818;stroke-width:1;"/><path d="M544.2783,601.6806 Q543.7002,601.9775 543.0596,602.1181 Q542.4189,602.2744 541.7158,602.2744 Q539.2158,602.2744 537.8877,600.6338 Q536.5752,598.9775 536.5752,595.8525 Q536.5752,592.7275 537.8877,591.0713 Q539.2158,589.415 541.7158,589.415 Q542.4189,589.415 543.0596,589.5713 Q543.7158,589.7275 544.2783,590.0244 L544.2783,592.7431 Q543.6533,592.165 543.0596,591.8994 Q542.4658,591.6181 541.8408,591.6181 Q540.4971,591.6181 539.8096,592.6963 Q539.1221,593.7588 539.1221,595.8525 Q539.1221,597.9463 539.8096,599.0244 Q540.4971,600.0869 541.8408,600.0869 Q542.4658,600.0869 543.0596,599.8213 Q543.6533,599.54 544.2783,598.9619 L544.2783,601.6806 Z " fill="#000000"/><text fill="#000000" font-family="sans-serif" font-size="14" lengthAdjust="spacing" textLength="87.6162" x="561.8096" y="600.8867">CartaoEntity</text><line style="stroke:#181818;stroke-width:0.5;" x1="424" x2="754.7354" y1="612.04" y2="612.04"/><text fill="#000000" font-family="sans-serif" font-size="14" lengthAdjust="spacing" textLength="61.1201" x="429" y="629.0351">-id: Long</text><text fill="#000000" font-family="sans-serif" font-size="14" lengthAdjust="spacing" textLength="107.3105" x="429" y="645.332">-apelido: String</text><text fill="#000000" font-family="sans-serif" font-size="14" lengthAdjust="spacing" textLength="156.4336" x="429" y="661.6289">-ultimosDigitos: String</text><text fill="#000000" font-family="sans-serif" font-size="14" lengthAdjust="spacing" textLength="206.6299" x="429" y="677.9257">-quantidadeCompras: Integer</text><text fill="#000000" font-family="sans-serif" font-size="14" lengthAdjust="spacing" textLength="139.7949" x="429" y="694.2226">-gastos: BigDecimal</text><line style="stroke:#181818;stroke-width:0.5;" x1="424" x2="754.7354" y1="701.5244" y2="701.5244"/><text fill="#000000" font-family="sans-serif" font-size="14" lengthAdjust="spacing" textLength="320.7354" x="429" y="718.5195">+addTransacoes(transacao: TransacaoEntity)</text></g><!--class TransacaoEntity--><g class="entity" data-qualified-name="TransacaoEntity" data-source-line="45" id="ent0007"><rect fill="#F1F1F1" height="162.0781" rx="2.5" ry="2.5" style="stroke:#181818;stroke-width:0.5;" width="253.4043" x="897.5" y="264.04"/><ellipse cx="963.2788" cy="280.04" fill="#ADD1B2" rx="11" ry="11" style="stroke:#181818;stroke-width:1;"/><path d="M966.2476,285.6806 Q965.6694,285.9775 965.0288,286.1181 Q964.3882,286.2744 963.6851,286.2744 Q961.1851,286.2744 959.8569,284.6337 Q958.5444,282.9775 958.5444,279.8525 Q958.5444,276.7275 959.8569,275.0712 Q961.1851,273.415 963.6851,273.415 Q964.3882,273.415 965.0288,273.5712 Q965.6851,273.7275 966.2476,274.0244 L966.2476,276.7431 Q965.6226,276.165 965.0288,275.8994 Q964.4351,275.6181 963.8101,275.6181 Q962.4663,275.6181 961.7788,276.6962 Q961.0913,277.7587 961.0913,279.8525 Q961.0913,281.9462 961.7788,283.0244 Q962.4663,284.0869 963.8101,284.0869 Q964.4351,284.0869 965.0288,283.8212 Q965.6226,283.54 966.2476,282.9619 L966.2476,285.6806 Z " fill="#000000"/><text fill="#000000" font-family="sans-serif" font-size="14" lengthAdjust="spacing" textLength="113.3467" x="983.7788" y="284.8867">TransacaoEntity</text><line style="stroke:#181818;stroke-width:0.5;" x1="898.5" x2="1149.9043" y1="296.04" y2="296.04"/><text fill="#000000" font-family="sans-serif" font-size="14" lengthAdjust="spacing" textLength="61.1201" x="903.5" y="313.0351">-id: Long</text><text fill="#000000" font-family="sans-serif" font-size="14" lengthAdjust="spacing" textLength="122.9785" x="903.5" y="329.332">-descricao: String</text><text fill="#000000" font-family="sans-serif" font-size="14" lengthAdjust="spacing" textLength="128.7617" x="903.5" y="345.6289">-valor: BigDecimal</text><text fill="#000000" font-family="sans-serif" font-size="14" lengthAdjust="spacing" textLength="143.418" x="903.5" y="361.9257">-tipo: TipoTransacao</text><text fill="#000000" font-family="sans-serif" font-size="14" lengthAdjust="spacing" textLength="241.4043" x="903.5" y="378.2226">-meioPagamento: MeioPagamento</text><text fill="#000000" font-family="sans-serif" font-size="14" lengthAdjust="spacing" textLength="130.0605" x="903.5" y="394.5195">-previsao: boolean</text><text fill="#000000" font-family="sans-serif" font-size="14" lengthAdjust="spacing" textLength="222.9131" x="903.5" y="410.8164">-dataTransacao: LocalDateTime</text><line style="stroke:#181818;stroke-width:0.5;" x1="898.5" x2="1149.9043" y1="418.1181" y2="418.1181"/></g><!--class ExtratoMensalEntity--><g class="entity" data-qualified-name="ExtratoMensalEntity" data-source-line="55" id="ent0008"><rect fill="#F1F1F1" height="129.4844" rx="2.5" ry="2.5" style="stroke:#181818;stroke-width:0.5;" width="332.7354" x="423" y="415.54"/><ellipse cx="514.5127" cy="431.54" fill="#ADD1B2" rx="11" ry="11" style="stroke:#181818;stroke-width:1;"/><path d="M517.4814,437.1806 Q516.9033,437.4775 516.2627,437.6181 Q515.6221,437.7744 514.9189,437.7744 Q512.4189,437.7744 511.0908,436.1337 Q509.7783,434.4775 509.7783,431.3525 Q509.7783,428.2275 511.0908,426.5712 Q512.4189,424.915 514.9189,424.915 Q515.6221,424.915 516.2627,425.0712 Q516.9189,425.2275 517.4814,425.5244 L517.4814,428.2431 Q516.8564,427.665 516.2627,427.3994 Q515.6689,427.1181 515.0439,427.1181 Q513.7002,427.1181 513.0127,428.1962 Q512.3252,429.2587 512.3252,431.3525 Q512.3252,433.4462 513.0127,434.5244 Q513.7002,435.5869 515.0439,435.5869 Q515.6689,435.5869 516.2627,435.3212 Q516.8564,435.04 517.4814,434.4619 L517.4814,437.1806 Z " fill="#000000"/><text fill="#000000" font-family="sans-serif" font-size="14" lengthAdjust="spacing" textLength="141.21" x="535.0127" y="436.3867">ExtratoMensalEntity</text><line style="stroke:#181818;stroke-width:0.5;" x1="424" x2="754.7354" y1="447.54" y2="447.54"/><text fill="#000000" font-family="sans-serif" font-size="14" lengthAdjust="spacing" textLength="61.1201" x="429" y="464.5351">-id: Long</text><text fill="#000000" font-family="sans-serif" font-size="14" lengthAdjust="spacing" textLength="194.4346" x="429" y="480.832">-mesReferencia: YearMonth</text><text fill="#000000" font-family="sans-serif" font-size="14" lengthAdjust="spacing" textLength="181.9111" x="429" y="497.1289">-saldoExtrato: BigDecimal</text><text fill="#000000" font-family="sans-serif" font-size="14" lengthAdjust="spacing" textLength="202.1865" x="429" y="513.4257">-status: StatusExtratoMensal</text><line style="stroke:#181818;stroke-width:0.5;" x1="424" x2="754.7354" y1="520.7275" y2="520.7275"/><text fill="#000000" font-family="sans-serif" font-size="14" lengthAdjust="spacing" textLength="320.7354" x="429" y="537.7226">+addTransacoes(transacao: TransacaoEntity)</text></g><!--class ParcelamentoEntity--><g class="entity" data-qualified-name="ParcelamentoEntity" data-source-line="63" id="ent0009"><rect fill="#F1F1F1" height="178.375" rx="2.5" ry="2.5" style="stroke:#181818;stroke-width:0.5;" width="266.1602" x="891" y="632.04"/><ellipse cx="951.0264" cy="648.04" fill="#ADD1B2" rx="11" ry="11" style="stroke:#181818;stroke-width:1;"/><path d="M953.9951,653.6806 Q953.417,653.9775 952.7764,654.1181 Q952.1357,654.2744 951.4326,654.2744 Q948.9326,654.2744 947.6045,652.6338 Q946.292,650.9775 946.292,647.8525 Q946.292,644.7275 947.6045,643.0713 Q948.9326,641.415 951.4326,641.415 Q952.1357,641.415 952.7764,641.5713 Q953.4326,641.7275 953.9951,642.0244 L953.9951,644.7431 Q953.3701,644.165 952.7764,643.8994 Q952.1826,643.6181 951.5576,643.6181 Q950.2139,643.6181 949.5264,644.6963 Q948.8389,645.7588 948.8389,647.8525 Q948.8389,649.9463 949.5264,651.0244 Q950.2139,652.0869 951.5576,652.0869 Q952.1826,652.0869 952.7764,651.8213 Q953.3701,651.54 953.9951,650.9619 L953.9951,653.6806 Z " fill="#000000"/><text fill="#000000" font-family="sans-serif" font-size="14" lengthAdjust="spacing" textLength="137.6074" x="971.5264" y="652.8867">ParcelamentoEntity</text><line style="stroke:#181818;stroke-width:0.5;" x1="892" x2="1156.1602" y1="664.04" y2="664.04"/><text fill="#000000" font-family="sans-serif" font-size="14" lengthAdjust="spacing" textLength="61.1201" x="897" y="681.0351">-id: Long</text><text fill="#000000" font-family="sans-serif" font-size="14" lengthAdjust="spacing" textLength="122.9785" x="897" y="697.332">-descricao: String</text><text fill="#000000" font-family="sans-serif" font-size="14" lengthAdjust="spacing" textLength="163.8369" x="897" y="713.6289">-valorTotal: BigDecimal</text><text fill="#000000" font-family="sans-serif" font-size="14" lengthAdjust="spacing" textLength="155.4424" x="897" y="729.9257">-totalParcelas: Integer</text><text fill="#000000" font-family="sans-serif" font-size="14" lengthAdjust="spacing" textLength="170.9463" x="897" y="746.2226">-dataCompra: LocalDate</text><text fill="#000000" font-family="sans-serif" font-size="14" lengthAdjust="spacing" textLength="105" x="897" y="762.5195">-ativo: boolean</text><line style="stroke:#181818;stroke-width:0.5;" x1="892" x2="1156.1602" y1="769.8213" y2="769.8213"/><text fill="#000000" font-family="sans-serif" font-size="14" lengthAdjust="spacing" textLength="254.1602" x="897" y="786.8164">+addParcela(parcela: ParcelaEntity)</text><text fill="#000000" font-family="sans-serif" font-size="14" lengthAdjust="spacing" textLength="112.417" x="897" y="803.1132">-gerarParcelas()</text></g><!--class ParcelaEntity--><g class="entity" data-qualified-name="ParcelaEntity" data-source-line="74" id="ent0010"><rect fill="#F1F1F1" height="113.1875" rx="2.5" ry="2.5" style="stroke:#181818;stroke-width:0.5;" width="211.5752" x="1248" y="664.54"/><ellipse cx="1303.3232" cy="680.54" fill="#ADD1B2" rx="11" ry="11" style="stroke:#181818;stroke-width:1;"/><path d="M1306.292,686.1806 Q1305.7139,686.4775 1305.0732,686.6181 Q1304.4326,686.7744 1303.7295,686.7744 Q1301.2295,686.7744 1299.9014,685.1338 Q1298.5889,683.4775 1298.5889,680.3525 Q1298.5889,677.2275 1299.9014,675.5713 Q1301.2295,673.915 1303.7295,673.915 Q1304.4326,673.915 1305.0732,674.0713 Q1305.7295,674.2275 1306.292,674.5244 L1306.292,677.2431 Q1305.667,676.665 1305.0732,676.3994 Q1304.4795,676.1181 1303.8545,676.1181 Q1302.5107,676.1181 1301.8232,677.1963 Q1301.1357,678.2588 1301.1357,680.3525 Q1301.1357,682.4463 1301.8232,683.5244 Q1302.5107,684.5869 1303.8545,684.5869 Q1304.4795,684.5869 1305.0732,684.3213 Q1305.667,684.04 1306.292,683.4619 L1306.292,686.1806 Z " fill="#000000"/><text fill="#000000" font-family="sans-serif" font-size="14" lengthAdjust="spacing" textLength="92.4287" x="1323.8232" y="685.3867">ParcelaEntity</text><line style="stroke:#181818;stroke-width:0.5;" x1="1249" x2="1458.5752" y1="696.54" y2="696.54"/><text fill="#000000" font-family="sans-serif" font-size="14" lengthAdjust="spacing" textLength="61.1201" x="1254" y="713.5351">-id: Long</text><text fill="#000000" font-family="sans-serif" font-size="14" lengthAdjust="spacing" textLength="180.3184" x="1254" y="729.832">-valorParcela: BigDecimal</text><text fill="#000000" font-family="sans-serif" font-size="14" lengthAdjust="spacing" textLength="199.5752" x="1254" y="746.1289">-dataVencimento: LocalDate</text><text fill="#000000" font-family="sans-serif" font-size="14" lengthAdjust="spacing" textLength="119.4922" x="1254" y="762.4257">-gerada: boolean</text><line style="stroke:#181818;stroke-width:0.5;" x1="1249" x2="1458.5752" y1="769.7275" y2="769.7275"/></g><!--class AlertaEntity--><g class="entity" data-qualified-name="AlertaEntity" data-source-line="81" id="ent0011"><rect fill="#F1F1F1" height="178.375" rx="2.5" ry="2.5" style="stroke:#181818;stroke-width:0.5;" width="215.2803" x="916.5" y="965.04"/><ellipse cx="978.502" cy="981.04" fill="#ADD1B2" rx="11" ry="11" style="stroke:#181818;stroke-width:1;"/><path d="M981.4707,986.6806 Q980.8926,986.9775 980.252,987.1181 Q979.6113,987.2744 978.9082,987.2744 Q976.4082,987.2744 975.0801,985.6338 Q973.7676,983.9775 973.7676,980.8525 Q973.7676,977.7275 975.0801,976.0713 Q976.4082,974.415 978.9082,974.415 Q979.6113,974.415 980.252,974.5713 Q980.9082,974.7275 981.4707,975.0244 L981.4707,977.7431 Q980.8457,977.165 980.252,976.8994 Q979.6582,976.6181 979.0332,976.6181 Q977.6895,976.6181 977.002,977.6963 Q976.3145,978.7588 976.3145,980.8525 Q976.3145,982.9463 977.002,984.0244 Q977.6895,985.0869 979.0332,985.0869 Q979.6582,985.0869 980.252,984.8213 Q980.8457,984.54 981.4707,983.9619 L981.4707,986.6806 Z " fill="#000000"/><text fill="#000000" font-family="sans-serif" font-size="14" lengthAdjust="spacing" textLength="82.7764" x="999.002" y="985.8867">AlertaEntity</text><line style="stroke:#181818;stroke-width:0.5;" x1="917.5" x2="1130.7803" y1="997.04" y2="997.04"/><text fill="#000000" font-family="sans-serif" font-size="14" lengthAdjust="spacing" textLength="61.1201" x="922.5" y="1014.0351">-id: Long</text><text fill="#000000" font-family="sans-serif" font-size="14" lengthAdjust="spacing" textLength="92.1963" x="922.5" y="1030.332">-titulo: String</text><text fill="#000000" font-family="sans-serif" font-size="14" lengthAdjust="spacing" textLength="122.9785" x="922.5" y="1046.6289">-descricao: String</text><text fill="#000000" font-family="sans-serif" font-size="14" lengthAdjust="spacing" textLength="133.0957" x="922.5" y="1062.9257">-limite: BigDecimal</text><text fill="#000000" font-family="sans-serif" font-size="14" lengthAdjust="spacing" textLength="105" x="922.5" y="1079.2226">-ativo: boolean</text><text fill="#000000" font-family="sans-serif" font-size="14" lengthAdjust="spacing" textLength="203.2803" x="922.5" y="1095.5195">-dataCriacao: LocalDateTime</text><line style="stroke:#181818;stroke-width:0.5;" x1="917.5" x2="1130.7803" y1="1102.8213" y2="1102.8213"/><text fill="#000000" font-family="sans-serif" font-size="14" lengthAdjust="spacing" textLength="123.3682" x="922.5" y="1119.8164">+verificarLimite()</text><text fill="#000000" font-family="sans-serif" font-size="14" lengthAdjust="spacing" textLength="122.1855" x="922.5" y="1136.1132">+dispararAlerta()</text></g><!--class NotificacaoEntity--><g class="entity" data-qualified-name="NotificacaoEntity" data-source-line="92" id="ent0012"><rect fill="#F1F1F1" height="129.4844" rx="2.5" ry="2.5" style="stroke:#181818;stroke-width:0.5;" width="200.8975" x="1253.5" y="892.54"/><ellipse cx="1290.8523" cy="908.54" fill="#ADD1B2" rx="11" ry="11" style="stroke:#181818;stroke-width:1;"/><path d="M1293.8211,914.1806 Q1293.243,914.4775 1292.6023,914.6181 Q1291.9617,914.7744 1291.2586,914.7744 Q1288.7586,914.7744 1287.4305,913.1338 Q1286.118,911.4775 1286.118,908.3525 Q1286.118,905.2275 1287.4305,903.5713 Q1288.7586,901.915 1291.2586,901.915 Q1291.9617,901.915 1292.6023,902.0713 Q1293.2586,902.2275 1293.8211,902.5244 L1293.8211,905.2431 Q1293.1961,904.665 1292.6023,904.3994 Q1292.0086,904.1181 1291.3836,904.1181 Q1290.0398,904.1181 1289.3523,905.1963 Q1288.6648,906.2588 1288.6648,908.3525 Q1288.6648,910.4463 1289.3523,911.5244 Q1290.0398,912.5869 1291.3836,912.5869 Q1292.0086,912.5869 1292.6023,912.3213 Q1293.1961,912.04 1293.8211,911.4619 L1293.8211,914.1806 Z " fill="#000000"/><text fill="#000000" font-family="sans-serif" font-size="14" lengthAdjust="spacing" textLength="119.2256" x="1309.8195" y="913.3867">NotificacaoEntity</text><line style="stroke:#181818;stroke-width:0.5;" x1="1254.5" x2="1453.3975" y1="924.54" y2="924.54"/><text fill="#000000" font-family="sans-serif" font-size="14" lengthAdjust="spacing" textLength="61.1201" x="1259.5" y="941.5351">-id: Long</text><text fill="#000000" font-family="sans-serif" font-size="14" lengthAdjust="spacing" textLength="134.1348" x="1259.5" y="957.832">-mensagem: String</text><text fill="#000000" font-family="sans-serif" font-size="14" lengthAdjust="spacing" textLength="95.4365" x="1259.5" y="974.1289">-lida: boolean</text><text fill="#000000" font-family="sans-serif" font-size="14" lengthAdjust="spacing" textLength="188.8975" x="1259.5" y="990.4257">-dataEnvio: LocalDateTime</text><line style="stroke:#181818;stroke-width:0.5;" x1="1254.5" x2="1453.3975" y1="997.7275" y2="997.7275"/><text fill="#000000" font-family="sans-serif" font-size="14" lengthAdjust="spacing" textLength="142.3584" x="1259.5" y="1014.7226">+marcarComoLida()</text></g><!--class TipoUsuario--><g class="entity" data-qualified-name="TipoUsuario" data-source-line="100" id="ent0013"><rect fill="#F1F1F1" height="80.5938" rx="2.5" ry="2.5" style="stroke:#181818;stroke-width:0.5;" width="131.4375" x="524" y="1097.54"/><ellipse cx="546.3529" cy="1113.54" fill="#EB937F" rx="11" ry="11" style="stroke:#181818;stroke-width:1;"/><path d="M550.4623,1119.54 L542.7436,1119.54 L542.7436,1107.1494 L550.4623,1107.1494 L550.4623,1109.3056 L545.1967,1109.3056 L545.1967,1111.9775 L549.9623,1111.9775 L549.9623,1114.1338 L545.1967,1114.1338 L545.1967,1117.3838 L550.4623,1117.3838 L550.4623,1119.54 Z " fill="#000000"/><text fill="#000000" font-family="sans-serif" font-size="14" lengthAdjust="spacing" textLength="83.0977" x="561.9869" y="1118.3867">TipoUsuario</text><line style="stroke:#181818;stroke-width:0.5;" x1="525" x2="654.4375" y1="1129.54" y2="1129.54"/><text fill="#000000" font-family="sans-serif" font-size="14" lengthAdjust="spacing" textLength="119.4375" x="530" y="1146.5351">ADMINISTRADOR</text><text fill="#000000" font-family="sans-serif" font-size="14" lengthAdjust="spacing" textLength="59.124" x="530" y="1162.832">PADRAO</text><line style="stroke:#181818;stroke-width:0.5;" x1="525" x2="654.4375" y1="1170.1338" y2="1170.1338"/></g><!--class TipoTransacao--><g class="entity" data-qualified-name="TipoTransacao" data-source-line="105" id="ent0014"><rect fill="#F1F1F1" height="80.5938" rx="2.5" ry="2.5" style="stroke:#181818;stroke-width:0.5;" width="134.3682" x="1287" y="370.54"/><ellipse cx="1302" cy="386.54" fill="#EB937F" rx="11" ry="11" style="stroke:#181818;stroke-width:1;"/><path d="M1306.1094,392.54 L1298.3906,392.54 L1298.3906,380.1494 L1306.1094,380.1494 L1306.1094,382.3056 L1300.8438,382.3056 L1300.8438,384.9775 L1305.6094,384.9775 L1305.6094,387.1337 L1300.8438,387.1337 L1300.8438,390.3837 L1306.1094,390.3837 L1306.1094,392.54 Z " fill="#000000"/><text fill="#000000" font-family="sans-serif" font-size="14" lengthAdjust="spacing" textLength="102.3682" x="1316" y="391.3867">TipoTransacao</text><line style="stroke:#181818;stroke-width:0.5;" x1="1288" x2="1420.3682" y1="402.54" y2="402.54"/><text fill="#000000" font-family="sans-serif" font-size="14" lengthAdjust="spacing" textLength="59.4521" x="1293" y="419.5351">RECEITA</text><text fill="#000000" font-family="sans-serif" font-size="14" lengthAdjust="spacing" textLength="64.2646" x="1293" y="435.832">DESPESA</text><line style="stroke:#181818;stroke-width:0.5;" x1="1288" x2="1420.3682" y1="443.1337" y2="443.1337"/></g><!--class MeioPagamento--><g class="entity" data-qualified-name="MeioPagamento" data-source-line="110" id="ent0015"><rect fill="#F1F1F1" height="113.1875" rx="2.5" ry="2.5" style="stroke:#181818;stroke-width:0.5;" width="144.8135" x="1281.5" y="222.54"/><ellipse cx="1296.5" cy="238.54" fill="#EB937F" rx="11" ry="11" style="stroke:#181818;stroke-width:1;"/><path d="M1300.6094,244.54 L1292.8906,244.54 L1292.8906,232.1494 L1300.6094,232.1494 L1300.6094,234.3056 L1295.3438,234.3056 L1295.3438,236.9775 L1300.1094,236.9775 L1300.1094,239.1337 L1295.3438,239.1337 L1295.3438,242.3837 L1300.6094,242.3837 L1300.6094,244.54 Z " fill="#000000"/><text fill="#000000" font-family="sans-serif" font-size="14" lengthAdjust="spacing" textLength="112.8135" x="1310.5" y="243.3867">MeioPagamento</text><line style="stroke:#181818;stroke-width:0.5;" x1="1282.5" x2="1425.3135" y1="254.54" y2="254.54"/><text fill="#000000" font-family="sans-serif" font-size="14" lengthAdjust="spacing" textLength="52.9307" x="1287.5" y="271.5351">DEBITO</text><text fill="#000000" font-family="sans-serif" font-size="14" lengthAdjust="spacing" textLength="62.8291" x="1287.5" y="287.832">CREDITO</text><text fill="#000000" font-family="sans-serif" font-size="14" lengthAdjust="spacing" textLength="69.6309" x="1287.5" y="304.1289">DINHEIRO</text><text fill="#000000" font-family="sans-serif" font-size="14" lengthAdjust="spacing" textLength="22.1621" x="1287.5" y="320.4257">PIX</text><line style="stroke:#181818;stroke-width:0.5;" x1="1282.5" x2="1425.3135" y1="327.7275" y2="327.7275"/></g><!--class StatusExtratoMensal--><g class="entity" data-qualified-name="StatusExtratoMensal" data-source-line="117" id="ent0016"><rect fill="#F1F1F1" height="80.5938" rx="2.5" ry="2.5" style="stroke:#181818;stroke-width:0.5;" width="176.9492" x="935.5" y="504.54"/><ellipse cx="950.5" cy="520.54" fill="#EB937F" rx="11" ry="11" style="stroke:#181818;stroke-width:1;"/><path d="M954.6094,526.54 L946.8906,526.54 L946.8906,514.1494 L954.6094,514.1494 L954.6094,516.3056 L949.3438,516.3056 L949.3438,518.9775 L954.1094,518.9775 L954.1094,521.1338 L949.3438,521.1338 L949.3438,524.3838 L954.6094,524.3838 L954.6094,526.54 Z " fill="#000000"/><text fill="#000000" font-family="sans-serif" font-size="14" lengthAdjust="spacing" textLength="144.9492" x="964.5" y="525.3867">StatusExtratoMensal</text><line style="stroke:#181818;stroke-width:0.5;" x1="936.5" x2="1111.4492" y1="536.54" y2="536.54"/><text fill="#000000" font-family="sans-serif" font-size="14" lengthAdjust="spacing" textLength="55.8838" x="941.5" y="553.5351">ABERTA</text><text fill="#000000" font-family="sans-serif" font-size="14" lengthAdjust="spacing" textLength="67.1357" x="941.5" y="569.832">FECHADA</text><line style="stroke:#181818;stroke-width:0.5;" x1="936.5" x2="1111.4492" y1="577.1338" y2="577.1338"/></g><!--link UsuarioEntity to CartaoEntity--><g class="link" data-entity-1="ent0002" data-entity-2="ent0006" data-link-type="association" data-source-line="122" id="lnk17"><path codeLine="122" d="M320.27,653.04 C353.7,653.04 389.14,653.04 422.92,653.04" fill="none" id="UsuarioEntity-CartaoEntity" style="stroke:#181818;stroke-width:1;"/><text fill="#000000" font-family="sans-serif" font-size="13" lengthAdjust="spacing" textLength="41.6025" x="351" y="649.1069">possui</text><text fill="#000000" font-family="sans-serif" font-size="13" lengthAdjust="spacing" textLength="8.271" x="328.5572" y="665.4874">1</text><text fill="#000000" font-family="sans-serif" font-size="13" lengthAdjust="spacing" textLength="23.0356" x="391.8576" y="665.4547">0..*</text></g><!--link UsuarioEntity to ContaEntity--><g class="link" data-entity-1="ent0002" data-entity-2="ent0004" data-link-type="association" data-source-line="123" id="lnk18"><path codeLine="123" d="M241.39,564.01 C289.89,511.38 355.88,445.88 423,398.04 C431.49,391.99 440.48,386.16 449.73,380.58" fill="none" id="UsuarioEntity-ContaEntity" style="stroke:#181818;stroke-width:1;"/><text fill="#000000" font-family="sans-serif" font-size="13" lengthAdjust="spacing" textLength="41.6025" x="351" y="418.1069">possui</text><text fill="#000000" font-family="sans-serif" font-size="13" lengthAdjust="spacing" textLength="8.271" x="239.505" y="553.073">1</text><text fill="#000000" font-family="sans-serif" font-size="13" lengthAdjust="spacing" textLength="23.0356" x="409.2568" y="400.9562">0..*</text></g><!--link UsuarioEntity to CarteiraEntity--><g class="link" data-entity-1="ent0002" data-entity-2="ent0003" data-link-type="association" data-source-line="124" id="lnk19"><path codeLine="124" d="M200.56,563.67 C242.05,470.6 318.19,325.83 423,234.04 C430.1,227.82 437.81,222.04 445.89,216.69" fill="none" id="UsuarioEntity-CarteiraEntity" style="stroke:#181818;stroke-width:1;"/><text fill="#000000" font-family="sans-serif" font-size="13" lengthAdjust="spacing" textLength="41.6025" x="351" y="267.1069">possui</text><text fill="#000000" font-family="sans-serif" font-size="13" lengthAdjust="spacing" textLength="8.271" x="195.1906" y="553.0079">1</text><text fill="#000000" font-family="sans-serif" font-size="13" lengthAdjust="spacing" textLength="24.8066" x="401.9781" y="236.9726">0..1</text></g><!--link UsuarioEntity to CategoriaEntity--><g class="link" data-entity-1="ent0002" data-entity-2="ent0005" data-link-type="association" data-source-line="125" id="lnk20"><path codeLine="125" d="M320.27,710.72 C388.43,735.96 464.94,764.29 518.75,784.21" fill="none" id="UsuarioEntity-CategoriaEntity" style="stroke:#181818;stroke-width:1;"/><text fill="#000000" font-family="sans-serif" font-size="13" lengthAdjust="spacing" textLength="41.6025" x="351" y="719.1069">possui</text><text fill="#000000" font-family="sans-serif" font-size="13" lengthAdjust="spacing" textLength="8.271" x="328.5572" y="726.1415">1</text><text fill="#000000" font-family="sans-serif" font-size="13" lengthAdjust="spacing" textLength="23.0356" x="487.912" y="794.5414">0..*</text></g><!--link UsuarioEntity to TransacaoEntity--><g class="link" data-entity-1="ent0002" data-entity-2="ent0007" data-link-type="association" data-source-line="126" id="lnk21"><path codeLine="126" d="M175.47,563.91 C196.93,432.85 257.83,192.23 423,86.04 C547.49,6 618.84,30.44 756,86.04 C844.13,121.76 919.21,202.08 967.1,263.87" fill="none" id="UsuarioEntity-TransacaoEntity" style="stroke:#181818;stroke-width:1;"/><text fill="#000000" font-family="sans-serif" font-size="13" lengthAdjust="spacing" textLength="50.3877" x="564.5" y="31.1069">registra</text><text fill="#000000" font-family="sans-serif" font-size="13" lengthAdjust="spacing" textLength="8.271" x="168.126" y="552.9647">1</text><text fill="#000000" font-family="sans-serif" font-size="13" lengthAdjust="spacing" textLength="23.0356" x="937.9917" y="253.0422">0..*</text></g><!--link UsuarioEntity to ExtratoMensalEntity--><g class="link" data-entity-1="ent0002" data-entity-2="ent0008" data-link-type="association" data-source-line="127" id="lnk22"><path codeLine="127" d="M320.27,589.48 C356.18,574.83 394.41,559.23 430.42,544.54" fill="none" id="UsuarioEntity-ExtratoMensalEntity" style="stroke:#181818;stroke-width:1;"/><text fill="#000000" font-family="sans-serif" font-size="13" lengthAdjust="spacing" textLength="41.6025" x="351" y="558.1069">possui</text><text fill="#000000" font-family="sans-serif" font-size="13" lengthAdjust="spacing" textLength="8.271" x="328.5572" y="598.6501">1</text><text fill="#000000" font-family="sans-serif" font-size="13" lengthAdjust="spacing" textLength="23.0356" x="391.7085" y="563.2282">0..*</text></g><!--link UsuarioEntity to AlertaEntity--><g class="link" data-entity-1="ent0002" data-entity-2="ent0011" data-link-type="association" data-source-line="128" id="lnk23"><path codeLine="128" d="M200.61,742.28 C231.09,806.34 280.87,889.59 350,938.04 C520.64,1057.63 774.18,1067.69 916.37,1062.25" fill="none" id="UsuarioEntity-AlertaEntity" style="stroke:#181818;stroke-width:1;"/><text fill="#000000" font-family="sans-serif" font-size="13" lengthAdjust="spacing" textLength="61.3311" x="559" y="979.1069">configura</text><text fill="#000000" font-family="sans-serif" font-size="13" lengthAdjust="spacing" textLength="8.271" x="195.3479" y="762.3481">1</text><text fill="#000000" font-family="sans-serif" font-size="13" lengthAdjust="spacing" textLength="23.0356" x="885.3577" y="1075.3643">0..*</text></g><!--link UsuarioEntity to NotificacaoEntity--><g class="link" data-entity-1="ent0002" data-entity-2="ent0012" data-link-type="association" data-source-line="129" id="lnk24"><path codeLine="129" d="M241.05,742.13 C288.23,790.57 352.97,846.48 423,876.04 C498.08,907.72 1029.22,939.62 1253.47,951.84" fill="none" id="UsuarioEntity-NotificacaoEntity" style="stroke:#181818;stroke-width:1;"/><text fill="#000000" font-family="sans-serif" font-size="13" lengthAdjust="spacing" textLength="44.7383" x="801.5" y="917.1069">recebe</text><text fill="#000000" font-family="sans-serif" font-size="13" lengthAdjust="spacing" textLength="8.271" x="239.3665" y="762.4872">1</text><text fill="#000000" font-family="sans-serif" font-size="13" lengthAdjust="spacing" textLength="23.0356" x="1222.5977" y="964.0563">0..*</text></g><!--link CartaoEntity to TransacaoEntity--><g class="link" data-entity-1="ent0006" data-entity-2="ent0007" data-link-type="association" data-source-line="131" id="lnk25"><path codeLine="131" d="M738.83,579.92 C745,574.32 750.78,568.36 756,562.04 C783.65,528.55 756.72,501.12 786,469.04 C810.43,442.27 828.52,453.13 861,437.04 C872.88,431.15 885.12,424.79 897.28,418.26" fill="none" id="CartaoEntity-TransacaoEntity" style="stroke:#181818;stroke-width:1;"/><text fill="#000000" font-family="sans-serif" font-size="13" lengthAdjust="spacing" textLength="46.5093" x="800.5" y="433.1069">vincula</text><text fill="#000000" font-family="sans-serif" font-size="13" lengthAdjust="spacing" textLength="8.271" x="745.1623" y="569.0682">1</text><text fill="#000000" font-family="sans-serif" font-size="13" lengthAdjust="spacing" textLength="23.0356" x="866.2785" y="434.9951">0..*</text></g><!--link CartaoEntity to ParcelamentoEntity--><g class="link" data-entity-1="ent0006" data-entity-2="ent0009" data-link-type="association" data-source-line="132" id="lnk26"><path codeLine="132" d="M756.17,679.09 C800.74,686.1 848.35,693.58 890.83,700.26" fill="none" id="CartaoEntity-ParcelamentoEntity" style="stroke:#181818;stroke-width:1;"/><text fill="#000000" font-family="sans-serif" font-size="13" lengthAdjust="spacing" textLength="46.5093" x="800.5" y="681.1069">vincula</text><text fill="#000000" font-family="sans-serif" font-size="13" lengthAdjust="spacing" textLength="8.271" x="763.9156" y="692.6851">1</text><text fill="#000000" font-family="sans-serif" font-size="13" lengthAdjust="spacing" textLength="23.0356" x="859.915" y="711.594">0..*</text></g><!--link ContaEntity to TransacaoEntity--><g class="link" data-entity-1="ent0004" data-entity-2="ent0007" data-link-type="association" data-source-line="134" id="lnk27"><path codeLine="134" d="M756.17,327.15 C803,330.29 853.19,333.65 897.26,336.61" fill="none" id="ContaEntity-TransacaoEntity" style="stroke:#181818;stroke-width:1;"/><text fill="#000000" font-family="sans-serif" font-size="13" lengthAdjust="spacing" textLength="46.0205" x="800.5" y="326.1069">agrupa</text><text fill="#000000" font-family="sans-serif" font-size="13" lengthAdjust="spacing" textLength="8.271" x="763.9156" y="340.0522">1</text><text fill="#000000" font-family="sans-serif" font-size="13" lengthAdjust="spacing" textLength="23.0356" x="866.2573" y="348.6247">0..*</text></g><!--link CarteiraEntity to TransacaoEntity--><g class="link" data-entity-1="ent0003" data-entity-2="ent0007" data-link-type="association" data-source-line="135" id="lnk28"><path codeLine="135" d="M722.61,216.55 C778.14,240.3 842.42,267.8 897.24,291.25" fill="none" id="CarteiraEntity-TransacaoEntity" style="stroke:#181818;stroke-width:1;"/><text fill="#000000" font-family="sans-serif" font-size="13" lengthAdjust="spacing" textLength="73.8867" x="787" y="243.1069">movimenta</text><text fill="#000000" font-family="sans-serif" font-size="13" lengthAdjust="spacing" textLength="8.271" x="731.1435" y="236.8147">1</text><text fill="#000000" font-family="sans-serif" font-size="13" lengthAdjust="spacing" textLength="23.0356" x="866.6688" y="300.7869">0..*</text></g><!--link CategoriaEntity to TransacaoEntity--><g class="link" data-entity-1="ent0005" data-entity-2="ent0007" data-link-type="association" data-source-line="136" id="lnk29"><path codeLine="136" d="M660.4,795.72 C693.17,785.82 730.52,769.5 756,743.04 C783.21,714.78 769.07,695.42 786,660.04 C824.81,578.9 836.77,558.79 891,487.04 C906.53,466.5 924.56,445.55 942.22,426.28" fill="none" id="CategoriaEntity-TransacaoEntity" style="stroke:#181818;stroke-width:1;"/><text fill="#000000" font-family="sans-serif" font-size="13" lengthAdjust="spacing" textLength="59.1855" x="794" y="525.1069">classifica</text><text fill="#000000" font-family="sans-serif" font-size="13" lengthAdjust="spacing" textLength="8.271" x="668.1377" y="807.0961">1</text><text fill="#000000" font-family="sans-serif" font-size="13" lengthAdjust="spacing" textLength="23.0356" x="910.8958" y="446.2527">0..*</text></g><!--link CategoriaEntity to AlertaEntity--><g class="link" data-entity-1="ent0005" data-entity-2="ent0011" data-link-type="association" data-source-line="137" id="lnk30"><path codeLine="137" d="M639.04,858.8 C676.5,894.2 731.07,941.13 786,972.04 C826.41,994.78 874.22,1012.79 916.27,1026.07" fill="none" id="CategoriaEntity-AlertaEntity" style="stroke:#181818;stroke-width:1;"/><text fill="#000000" font-family="sans-serif" font-size="13" lengthAdjust="spacing" textLength="58.8301" x="794.5" y="968.1069">monitora</text><text fill="#000000" font-family="sans-serif" font-size="13" lengthAdjust="spacing" textLength="8.271" x="637.1773" y="878.4431">1</text><text fill="#000000" font-family="sans-serif" font-size="13" lengthAdjust="spacing" textLength="23.0356" x="885.624" y="1036.8178">0..*</text></g><!--link CategoriaEntity to ParcelamentoEntity--><g class="link" data-entity-1="ent0005" data-entity-2="ent0009" data-link-type="association" data-source-line="138" id="lnk31"><path codeLine="138" d="M660.47,795.64 C722.51,782.88 814.79,763.89 890.72,748.26" fill="none" id="CategoriaEntity-ParcelamentoEntity" style="stroke:#181818;stroke-width:1;"/><text fill="#000000" font-family="sans-serif" font-size="13" lengthAdjust="spacing" textLength="59.1855" x="794" y="751.1069">classifica</text><text fill="#000000" font-family="sans-serif" font-size="13" lengthAdjust="spacing" textLength="8.271" x="668.215" y="790.4609">1</text><text fill="#000000" font-family="sans-serif" font-size="13" lengthAdjust="spacing" textLength="23.0356" x="859.7989" y="762.219">0..*</text></g><!--link ExtratoMensalEntity to TransacaoEntity--><g class="link" data-entity-1="ent0008" data-entity-2="ent0007" data-link-type="association" data-source-line="140" id="lnk32"><path codeLine="140" d="M756.13,421.67 C766.21,418.35 776.23,415.12 786,412.04 C821.99,400.7 861.33,389.22 897.44,379.04" fill="none" id="ExtratoMensalEntity-TransacaoEntity" style="stroke:#181818;stroke-width:1;"/><text fill="#000000" font-family="sans-serif" font-size="13" lengthAdjust="spacing" textLength="61.5088" x="793" y="387.1069">consolida</text><text fill="#000000" font-family="sans-serif" font-size="13" lengthAdjust="spacing" textLength="8.271" x="763.8738" y="431.4239">1</text><text fill="#000000" font-family="sans-serif" font-size="13" lengthAdjust="spacing" textLength="23.0356" x="866.4477" y="393.5077">0..*</text></g><!--link ParcelamentoEntity to ParcelaEntity--><g class="link" data-entity-1="ent0009" data-entity-2="ent0010" data-link-type="association" data-source-line="141" id="lnk33"><path codeLine="141" d="M1157.46,721.04 C1187.51,721.04 1219.03,721.04 1247.77,721.04" fill="none" id="ParcelamentoEntity-ParcelaEntity" style="stroke:#181818;stroke-width:1;"/><text fill="#000000" font-family="sans-serif" font-size="13" lengthAdjust="spacing" textLength="29.561" x="1188" y="717.1069">gera</text><text fill="#000000" font-family="sans-serif" font-size="13" lengthAdjust="spacing" textLength="8.271" x="1164.9804" y="733.5104">1</text><text fill="#000000" font-family="sans-serif" font-size="13" lengthAdjust="spacing" textLength="23.0356" x="1216.8755" y="733.609">1..*</text></g><!--link AlertaEntity to NotificacaoEntity--><g class="link" data-entity-1="ent0011" data-entity-2="ent0012" data-link-type="association" data-source-line="143" id="lnk34"><path codeLine="143" d="M1131.95,1022.41 C1171.02,1010.86 1215.03,997.84 1253.43,986.49" fill="none" id="AlertaEntity-NotificacaoEntity" style="stroke:#181818;stroke-width:1;"/><text fill="#000000" font-family="sans-serif" font-size="13" lengthAdjust="spacing" textLength="29.561" x="1188" y="995.1069">gera</text><text fill="#000000" font-family="sans-serif" font-size="13" lengthAdjust="spacing" textLength="8.271" x="1139.8212" y="1032.7717">1</text><text fill="#000000" font-family="sans-serif" font-size="13" lengthAdjust="spacing" textLength="23.0356" x="1222.5549" y="1001.1426">0..*</text></g><!--link UsuarioEntity to TipoUsuario--><g class="link" data-entity-1="ent0002" data-entity-2="ent0013" data-link-type="dependency" data-source-line="145" id="lnk35"><path codeLine="145" d="M184.33,742.26 C208.74,832.34 258.66,969.73 350,1053.04 C398.47,1097.25 465.6022,1117.6453 518.0722,1127.9353" fill="none" id="UsuarioEntity-to-TipoUsuario" style="stroke:#181818;stroke-width:1;"/><polygon fill="#181818" points="523.96,1129.09,515.898,1123.4328,519.0535,1128.1278,514.3584,1131.2832,523.96,1129.09" style="stroke:#181818;stroke-width:1;"/></g><!--link TransacaoEntity to TipoTransacao--><g class="link" data-entity-1="ent0007" data-entity-2="ent0014" data-link-type="dependency" data-source-line="146" id="lnk36"><path codeLine="146" d="M1150.88,370.37 C1197.12,379.67 1241.7779,388.6563 1280.7379,396.4963" fill="none" id="TransacaoEntity-to-TipoTransacao" style="stroke:#181818;stroke-width:1;"/><polygon fill="#181818" points="1286.62,397.68,1278.586,391.9831,1281.7183,396.6936,1277.0078,399.8259,1286.62,397.68" style="stroke:#181818;stroke-width:1;"/></g><!--link TransacaoEntity to MeioPagamento--><g class="link" data-entity-1="ent0007" data-entity-2="ent0015" data-link-type="dependency" data-source-line="147" id="lnk37"><path codeLine="147" d="M1150.88,319.71 C1194.96,310.84 1237.0481,302.3744 1275.1881,294.6944" fill="none" id="TransacaoEntity-to-MeioPagamento" style="stroke:#181818;stroke-width:1;"/><polygon fill="#181818" points="1281.07,293.51,1271.4575,291.3653,1276.1684,294.497,1273.0367,299.2079,1281.07,293.51" style="stroke:#181818;stroke-width:1;"/></g><!--link ExtratoMensalEntity to StatusExtratoMensal--><g class="link" data-entity-1="ent0008" data-entity-2="ent0016" data-link-type="dependency" data-source-line="148" id="lnk38"><path codeLine="148" d="M756.08,517.95 C766.18,519.8 776.21,521.52 786,523.04 C835.2,530.7 884.6081,535.5646 929.4681,539.0546" fill="none" id="ExtratoMensalEntity-to-StatusExtratoMensal" style="stroke:#181818;stroke-width:1;"/><polygon fill="#181818" points="935.45,539.52,926.7874,534.834,930.4651,539.1322,926.1669,542.8099,935.45,539.52" style="stroke:#181818;stroke-width:1;"/></g><?plantuml-src hLPDRzim3BtxLmWvPHjIjDSS1hYnXnf8so39Xkt8sgmhJ1-P90VxmFxx93bEBCUrWs8NMvP8liSdYZB3PqEC98gMBuOKL65kg1IH_ax53XHmaZFGEZP6qQVAO9PBiQ6_aLn7aLyXdtK5YifK66f-aJyH8JD2YpbPIb7w3o4vpid61ZXC80VAWXcDuWM26KDtyX1vJhQd3xluWK1HB40PaDFSl-Qa_gmvl3lQI65WchkdjN2lhW4OBAMYrgWPkL27OMFyjydKWI1LC90gT5BLm0fBxvQM2UQK0skWjmg4XjocO9gHpRCPdaEVs5yaSGdQI3q0B54F8ZjhBJby0IRLLXfWqxqRjaC6qWIYNSHn1uLos4zICWGHwWm31GKxPDJ9sWfMCKEvr0ajgK-yjVIZ0XkgW08NakyKsDLCMBge_ezKHzwTbJxg1UfSKH-dnV1CsUCHg6l_6DZFSwHo1QKjDM6imNtxinPMuPxgjhGU6WniJsaiPGuiiTksfHnFEQG_RQf6tgErOw_dmL6lyHaLYjoTcMy8wjwMwCkfw0-1phBI1apbDyYz0xYtwhu2bIEh1NYJzBw-p_LtiuVOdPfnMjR5r1Aohar3zu7mFgD3bEckViyRogVJPkiG5QW6RdgUtkkP-HnMJUXE5exg5xTDXt89wJhG0dhEOCnG3NKSEr-nKCf-WHdbrE0PhJET3gBQ5j9Jdax6FIhwRCEhfOyuhNjKGRMxfbJDjotRWpJUVl0ySbTu9V8EvROa3RLKx6alCMwL1sNBGIwjOqq1HSNRrvR7ZfFxx27RRDTnyhYstwiuMSUFWVcnoBt3EbsasJQseoJThD9DVBGD3hstJTBRRFje1ujrcjIZ97kuIxEr6wwohqVVdfDNqxjDrnxiKxguYnCF5bxkavi9cSt8vFhgwlqaRDDpifDQLtJOetMBZJlSJBetxcKWdQle8gTkwvuJXINLLg91jxvkUH5USBpcnFwZFDEo6a4xhsX7CySdZA9WCyPosrEHLmo6d7fwwialQc_a61YKgjhLMAsj7FFYSkyxbdCCztFCqvz-hzE8QsSFk1Jsrq6DUVKAqyAC-cfYbBCKMhgs4_M4RvnlslX7LzV1eoZ8PRngQgUmrcQpZy6FTfTbitxw6Ucp2Fz6-hHmLZqjw1y0?></g></svg>