<svg xmlns="http://www.w3.org/2000/svg" xmlns:xlink="http://www.w3.org/1999/xlink" contentStyleType="text/css" data-diagram-type="DESCRIPTION" height="929px" preserveAspectRatio="none" style="width:688px;height:929px;background:#FFFFFF;" version="1.1" viewBox="0 0 688 929" width="688px" zoomAndPan="magnify"><defs/><g><!--cluster Sistema de Gest?o Financeira Pessoal (Zeni)--><g class="cluster" data-entity="Sistema de Gest&#227;o Financeira Pessoal (Zeni)" data-source-line="5" data-uid="ent0004" id="cluster_Sistema de Gest&#227;o Financeira Pessoal (Zeni)"><rect fill="none" height="804" rx="2.5" ry="2.5" style="stroke:#181818;stroke-width:1;" width="530" x="152" y="60.61"/><text fill="#000000" font-family="sans-serif" font-size="14" font-weight="bold" lengthAdjust="spacing" textLength="352.584" x="240.708" y="75.6051">Sistema de Gest&#227;o Financeira Pessoal (Zeni)</text></g><!--entity UC_Auth--><g class="entity" data-entity="UC_Auth" data-source-line="7" data-uid="ent0005" id="entity_UC_Auth"><ellipse cx="601.1236" cy="506.5347" fill="#F1F1F1" rx="65.1236" ry="15.4247" style="stroke:#181818;stroke-width:0.5;"/><text fill="#000000" font-family="sans-serif" font-size="14" lengthAdjust="spacing" textLength="93.7959" x="554.2257" y="511.1832">Autenticar-se</text></g><!--entity UC_Register--><g class="entity" data-entity="UC_Register" data-source-line="8" data-uid="ent0006" id="entity_UC_Register"><ellipse cx="289.5752" cy="193.725" fill="#F1F1F1" rx="63.5752" ry="15.115" style="stroke:#181818;stroke-width:0.5;"/><text fill="#000000" font-family="sans-serif" font-size="14" lengthAdjust="spacing" textLength="89.6533" x="244.7485" y="198.3735">Cadastrar-se</text></g><!--entity UC_ManageTransactions--><g class="entity" data-entity="UC_ManageTransactions" data-source-line="9" data-uid="ent0007" id="entity_UC_ManageTransactions"><ellipse cx="289.6194" cy="264.4339" fill="#F1F1F1" rx="89.6194" ry="20.3239" style="stroke:#181818;stroke-width:0.5;"/><text fill="#000000" font-family="sans-serif" font-size="14" lengthAdjust="spacing" textLength="152.8789" x="213.1799" y="269.0823">Gerenciar Transa&#231;&#245;es</text></g><!--entity UC_ManageCards--><g class="entity" data-entity="UC_ManageCards" data-source-line="10" data-uid="ent0008" id="entity_UC_ManageCards"><ellipse cx="289.5794" cy="345.6259" fill="#F1F1F1" rx="113.0794" ry="25.0159" style="stroke:#181818;stroke-width:0.5;"/><text fill="#000000" font-family="sans-serif" font-size="14" lengthAdjust="spacing" textLength="204.5244" x="187.3172" y="350.2743">Gerenciar Cart&#245;es de Cr&#233;dito</text></g><!--entity UC_SetLimits--><g class="entity" data-entity="UC_SetLimits" data-source-line="11" data-uid="ent0009" id="entity_UC_SetLimits"><ellipse cx="289.5939" cy="428.5288" fill="#F1F1F1" rx="100.0939" ry="22.4188" style="stroke:#181818;stroke-width:0.5;"/><text fill="#000000" font-family="sans-serif" font-size="14" lengthAdjust="spacing" textLength="176.2646" x="201.4616" y="433.1772">Definir Limites de Gastos</text></g><!--entity UC_ViewDashboard--><g class="entity" data-entity="UC_ViewDashboard" data-source-line="12" data-uid="ent0010" id="entity_UC_ViewDashboard"><ellipse cx="289.6173" cy="506.5335" fill="#F1F1F1" rx="87.6173" ry="19.9235" style="stroke:#181818;stroke-width:0.5;"/><text fill="#000000" font-family="sans-serif" font-size="14" lengthAdjust="spacing" textLength="148.3262" x="215.4542" y="511.1819">Visualizar Dashboard</text></g><!--entity UC_ViewInvoices--><g class="entity" data-entity="UC_ViewInvoices" data-source-line="13" data-uid="ent0011" id="entity_UC_ViewInvoices"><ellipse cx="289.3712" cy="588.7842" fill="#F1F1F1" rx="121.3712" ry="26.6742" style="stroke:#181818;stroke-width:0.5;"/><text fill="#000000" font-family="sans-serif" font-size="14" lengthAdjust="spacing" textLength="222.2773" x="178.2325" y="593.4327">Visualizar Faturas Consolidadas</text></g><!--entity UC_ExportReports--><g class="entity" data-entity="UC_ExportReports" data-source-line="14" data-uid="ent0012" id="entity_UC_ExportReports"><ellipse cx="289.3352" cy="669.377" fill="#F1F1F1" rx="81.8352" ry="18.767" style="stroke:#181818;stroke-width:0.5;"/><text fill="#000000" font-family="sans-serif" font-size="14" lengthAdjust="spacing" textLength="134.9824" x="221.844" y="674.0255">Exportar Relat&#243;rios</text></g><!--entity UC_ConfigAlerts--><g class="entity" data-entity="UC_ConfigAlerts" data-source-line="15" data-uid="ent0013" id="entity_UC_ConfigAlerts"><ellipse cx="289.6702" cy="741.744" fill="#F1F1F1" rx="78.6702" ry="18.134" style="stroke:#181818;stroke-width:0.5;"/><text fill="#000000" font-family="sans-serif" font-size="14" lengthAdjust="spacing" textLength="127.5313" x="225.9046" y="746.3925">Configurar Alertas</text></g><!--entity UC_AccessSupport--><g class="entity" data-entity="UC_AccessSupport" data-source-line="16" data-uid="ent0014" id="entity_UC_AccessSupport"><ellipse cx="289.6249" cy="119.535" fill="#F1F1F1" rx="107.6249" ry="23.925" style="stroke:#181818;stroke-width:0.5;"/><text fill="#000000" font-family="sans-serif" font-size="14" lengthAdjust="spacing" textLength="192.7324" x="193.2587" y="124.1834">Acessar Suporte e Tutoriais</text></g><!--entity UC_ManageAds--><g class="entity" data-entity="UC_ManageAds" data-source-line="17" data-uid="ent0015" id="entity_UC_ManageAds"><ellipse cx="289.2585" cy="821.4617" fill="#F1F1F1" rx="119.7585" ry="26.3517" style="stroke:#181818;stroke-width:0.5;"/><text fill="#000000" font-family="sans-serif" font-size="14" lengthAdjust="spacing" textLength="218.8389" x="179.839" y="826.1101">Gerenciar Parcerias e An&#250;ncios</text></g><!--entity User--><g class="entity" data-entity="User" data-source-line="2" data-uid="ent0002" id="entity_User"><ellipse cx="55.6021" cy="358.11" fill="#F1F1F1" rx="8" ry="8" style="stroke:#181818;stroke-width:0.5;"/><path d="M55.6021,366.11 L55.6021,393.11 M42.6021,374.11 L68.6021,374.11 M55.6021,393.11 L42.6021,408.11 M55.6021,393.11 L68.6021,408.11" fill="none" style="stroke:#181818;stroke-width:0.5;"/><text fill="#000000" font-family="sans-serif" font-size="14" lengthAdjust="spacing" textLength="53.2041" x="29" y="422.6051">Usu&#225;rio</text></g><!--entity Admin--><g class="entity" data-entity="Admin" data-source-line="3" data-uid="ent0003" id="entity_Admin"><ellipse cx="55.54" cy="842.11" fill="#F1F1F1" rx="8" ry="8" style="stroke:#181818;stroke-width:0.5;"/><path d="M55.54,850.11 L55.54,877.11 M42.54,858.11 L68.54,858.11 M55.54,877.11 L42.54,892.11 M55.54,877.11 L68.54,892.11" fill="none" style="stroke:#181818;stroke-width:0.5;"/><text fill="#000000" font-family="sans-serif" font-size="14" lengthAdjust="spacing" textLength="99.0801" x="6" y="906.6051">Administrador</text></g><!--link User to UC_Auth--><g class="link" data-entity-1="User" data-entity-2="UC_Auth" data-source-line="21" data-uid="lnk16" id="link_User_UC_Auth"><path d="M61.55,349.38 C72.37,273.99 100.41,110.6 144,77.61 C238.62,6 311.6,12.79 411,77.61 C562,176.09 593.19,425.32 598.85,490.7" fill="none" id="User-UC_Auth" style="stroke:#181818;stroke-width:1;"/></g><!--link User to UC_Register--><g class="link" data-entity-1="User" data-entity-2="UC_Register" data-source-line="22" data-uid="lnk17" id="link_User_UC_Register"><path d="M67.19,349.29 C79.55,312.22 103.57,257.27 144,226.61 C167.58,208.73 199.14,200.26 226.74,196.34" fill="none" id="User-UC_Register" style="stroke:#181818;stroke-width:1;"/></g><!--link User to UC_ManageTransactions--><g class="link" data-entity-1="User" data-entity-2="UC_ManageTransactions" data-source-line="23" data-uid="lnk18" id="link_User_UC_ManageTransactions"><path d="M82.17,355.53 C98.18,337.52 120.21,316.04 144,302.61 C165.8,290.3 191.69,281.87 215.5,276.15" fill="none" id="User-UC_ManageTransactions" style="stroke:#181818;stroke-width:1;"/></g><!--link User to UC_ManageCards--><g class="link" data-entity-1="User" data-entity-2="UC_ManageCards" data-source-line="24" data-uid="lnk19" id="link_User_UC_ManageCards"><path d="M82.21,382.95 C110.94,377.75 159,369.05 201.51,361.36" fill="none" id="User-UC_ManageCards" style="stroke:#181818;stroke-width:1;"/></g><!--link User to UC_SetLimits--><g class="link" data-entity-1="User" data-entity-2="UC_SetLimits" data-source-line="25" data-uid="lnk20" id="link_User_UC_SetLimits"><path d="M82.21,392.15 C112.95,397.59 165.81,406.93 210.32,414.79" fill="none" id="User-UC_SetLimits" style="stroke:#181818;stroke-width:1;"/></g><!--link User to UC_ViewDashboard--><g class="link" data-entity-1="User" data-entity-2="UC_ViewDashboard" data-source-line="26" data-uid="lnk21" id="link_User_UC_ViewDashboard"><path d="M82.08,417.75 C98.21,434.98 120.41,455.66 144,468.61 C166.51,480.97 193.22,489.45 217.52,495.21" fill="none" id="User-UC_ViewDashboard" style="stroke:#181818;stroke-width:1;"/></g><!--link User to UC_ViewInvoices--><g class="link" data-entity-1="User" data-entity-2="UC_ViewInvoices" data-source-line="27" data-uid="lnk22" id="link_User_UC_ViewInvoices"><path d="M68.64,425.79 C81.79,461.2 106.11,512.93 144,543.61 C159.21,555.93 177.81,564.89 196.53,571.4" fill="none" id="User-UC_ViewInvoices" style="stroke:#181818;stroke-width:1;"/></g><!--link User to UC_ExportReports--><g class="link" data-entity-1="User" data-entity-2="UC_ExportReports" data-source-line="28" data-uid="lnk23" id="link_User_UC_ExportReports"><path d="M59.27,425.99 C65.28,480.06 84.25,578.14 144,632.61 C162.28,649.27 187.03,658.65 210.88,663.86" fill="none" id="User-UC_ExportReports" style="stroke:#181818;stroke-width:1;"/></g><!--link User to UC_ConfigAlerts--><g class="link" data-entity-1="User" data-entity-2="UC_ConfigAlerts" data-source-line="29" data-uid="lnk24" id="link_User_UC_ConfigAlerts"><path d="M62.09,425.66 C73.96,501.25 103.89,666.47 144,705.61 C162.32,723.49 188.08,732.92 212.78,737.77" fill="none" id="User-UC_ConfigAlerts" style="stroke:#181818;stroke-width:1;"/></g><!--link User to UC_AccessSupport--><g class="link" data-entity-1="User" data-entity-2="UC_AccessSupport" data-source-line="30" data-uid="lnk25" id="link_User_UC_AccessSupport"><path d="M60.77,349.21 C68.44,298.72 89.25,210.57 144,160.61 C158.74,147.16 177.57,138.09 196.73,131.98" fill="none" id="User-UC_AccessSupport" style="stroke:#181818;stroke-width:1;"/></g><!--link Admin to UC_Auth--><g class="link" data-entity-1="Admin" data-entity-2="UC_Auth" data-source-line="33" data-uid="lnk26" id="link_Admin_UC_Auth"><path d="M105.26,884.97 C177.59,901.83 315.1,922.31 411,865.61 C543.48,787.28 587.5,581.13 597.55,522.42" fill="none" id="Admin-UC_Auth" style="stroke:#181818;stroke-width:1;"/></g><!--link Admin to UC_ManageAds--><g class="link" data-entity-1="Admin" data-entity-2="UC_ManageAds" data-source-line="34" data-uid="lnk27" id="link_Admin_UC_ManageAds"><path d="M105.13,861.13 C133.44,855.03 169.92,847.16 202.89,840.06" fill="none" id="Admin-UC_ManageAds" style="stroke:#181818;stroke-width:1;"/></g><!--link UC_ManageTransactions to UC_Auth--><g class="link" data-entity-1="UC_ManageTransactions" data-entity-2="UC_Auth" data-source-line="37" data-uid="lnk28" id="link_UC_ManageTransactions_UC_Auth"><path d="M352.34,279.34 C371.73,285.2 392.81,292.9 411,302.61 C458.71,328.06 468.56,339.59 506,378.61 C541.31,415.41 571.4906,460.7879 587.2806,485.9479" fill="none" id="UC_ManageTransactions-to-UC_Auth" style="stroke:#181818;stroke-width:1;stroke-dasharray:7.0,7.0;"/><polygon fill="#181818" points="590.47,491.03,589.0739,481.2806,587.8121,486.7949,582.2978,485.5332,590.47,491.03" style="stroke:#181818;stroke-width:1;"/><text fill="#000000" font-family="sans-serif" font-size="13" lengthAdjust="spacing" textLength="63.0068" x="442" y="316.6769">&#171;include&#187;</text></g><!--link UC_ManageCards to UC_Auth--><g class="link" data-entity-1="UC_ManageCards" data-entity-2="UC_Auth" data-source-line="38" data-uid="lnk29" id="link_UC_ManageCards_UC_Auth"><path d="M354.49,366.12 C372.99,372.67 393.03,380.37 411,388.61 C455.15,408.85 464.78,416.92 506,442.61 C531.8,458.69 555.6792,475.1185 574.5092,488.4185" fill="none" id="UC_ManageCards-to-UC_Auth" style="stroke:#181818;stroke-width:1;stroke-dasharray:7.0,7.0;"/><polygon fill="#181818" points="579.41,491.88,574.3665,483.4205,575.326,488.9954,569.7511,489.9549,579.41,491.88" style="stroke:#181818;stroke-width:1;"/><text fill="#000000" font-family="sans-serif" font-size="13" lengthAdjust="spacing" textLength="63.0068" x="442" y="399.6769">&#171;include&#187;</text></g><!--link UC_SetLimits to UC_Auth--><g class="link" data-entity-1="UC_SetLimits" data-entity-2="UC_Auth" data-source-line="39" data-uid="lnk30" id="link_UC_SetLimits_UC_Auth"><path d="M358.52,444.99 C400.98,455.3 456.73,469 506,481.61 C522.69,485.88 535.2031,489.172 551.1931,493.442" fill="none" id="UC_SetLimits-to-UC_Auth" style="stroke:#181818;stroke-width:1;stroke-dasharray:7.0,7.0;"/><polygon fill="#181818" points="556.99,494.99,549.3267,488.8034,552.1593,493.7,547.2627,496.5326,556.99,494.99" style="stroke:#181818;stroke-width:1;"/><text fill="#000000" font-family="sans-serif" font-size="13" lengthAdjust="spacing" textLength="63.0068" x="442" y="463.6769">&#171;include&#187;</text></g><!--link UC_ViewDashboard to UC_Auth--><g class="link" data-entity-1="UC_ViewDashboard" data-entity-2="UC_Auth" data-source-line="40" data-uid="lnk31" id="link_UC_ViewDashboard_UC_Auth"><path d="M377.12,506.61 C427.38,506.61 483.6,506.61 529.52,506.61" fill="none" id="UC_ViewDashboard-to-UC_Auth" style="stroke:#181818;stroke-width:1;stroke-dasharray:7.0,7.0;"/><polygon fill="#181818" points="535.52,506.61,526.52,502.61,530.52,506.61,526.52,510.61,535.52,506.61" style="stroke:#181818;stroke-width:1;"/><text fill="#000000" font-family="sans-serif" font-size="13" lengthAdjust="spacing" textLength="63.0068" x="442" y="502.6769">&#171;include&#187;</text></g><!--link UC_ViewInvoices to UC_Auth--><g class="link" data-entity-1="UC_ViewInvoices" data-entity-2="UC_Auth" data-source-line="41" data-uid="lnk32" id="link_UC_ViewInvoices_UC_Auth"><path d="M367.56,568.26 C408.65,557.39 460.08,543.79 506,531.61 C522.65,527.19 535.152,523.8737 551.152,519.6137" fill="none" id="UC_ViewInvoices-to-UC_Auth" style="stroke:#181818;stroke-width:1;stroke-dasharray:7.0,7.0;"/><polygon fill="#181818" points="556.95,518.07,547.2238,516.5202,552.1183,519.3564,549.2821,524.2509,556.95,518.07" style="stroke:#181818;stroke-width:1;"/><text fill="#000000" font-family="sans-serif" font-size="13" lengthAdjust="spacing" textLength="63.0068" x="442" y="527.6769">&#171;include&#187;</text></g><!--link UC_ExportReports to UC_Auth--><g class="link" data-entity-1="UC_ExportReports" data-entity-2="UC_Auth" data-source-line="42" data-uid="lnk33" id="link_UC_ExportReports_UC_Auth"><path d="M346.23,655.84 C367.01,649.85 390.52,642.02 411,632.61 C478.73,601.5 544.7952,551.4112 577.1852,525.3512" fill="none" id="UC_ExportReports-to-UC_Auth" style="stroke:#181818;stroke-width:1;stroke-dasharray:7.0,7.0;"/><polygon fill="#181818" points="581.86,521.59,572.3404,524.1153,577.9644,524.7243,577.3553,530.3483,581.86,521.59" style="stroke:#181818;stroke-width:1;"/><text fill="#000000" font-family="sans-serif" font-size="13" lengthAdjust="spacing" textLength="63.0068" x="442" y="576.6769">&#171;include&#187;</text></g><!--link UC_ConfigAlerts to UC_Auth--><g class="link" data-entity-1="UC_ConfigAlerts" data-entity-2="UC_Auth" data-source-line="43" data-uid="lnk34" id="link_UC_ConfigAlerts_UC_Auth"><path d="M345.48,728.95 C366.51,723.15 390.37,715.36 411,705.61 C457.03,683.85 469.73,677.33 506,641.61 C544.26,603.94 574.1212,554.0433 588.8212,527.4033" fill="none" id="UC_ConfigAlerts-to-UC_Auth" style="stroke:#181818;stroke-width:1;stroke-dasharray:7.0,7.0;"/><polygon fill="#181818" points="591.72,522.15,583.8696,528.0974,589.3044,526.5277,590.874,531.9625,591.72,522.15" style="stroke:#181818;stroke-width:1;"/><text fill="#000000" font-family="sans-serif" font-size="13" lengthAdjust="spacing" textLength="63.0068" x="442" y="637.6769">&#171;include&#187;</text></g><!--SRC=[XLF1RjD04BtxAqQv08UKEweYMIcDa42gahO7BcXOJvoHd5qqkuOAnCSW3eWpuiBLFyQi7Rkx9GqNIvxttepdlN53sm31WN2z2r2na0diR84cE87PZM-xRy9k1kZXnfECG5djsR8FWfMJ7kqhHH4ReAqRWjb6STeZL0Ghyg7xxk2IBLf3B0XNvBt31fw-9SlFPl2b02YWzMJGgxXi0zd01cNkQHY_VAV5dT8cqX8hZD-GSjPKnxcIybOaP0sZmBMWzTZzw7wJ7nLlq69D0z9lxuzhboWXwk92I-b-LXnStaCPLIQ-eAtQ9F2Qznm6vKg_s4spDnHwB5FTic-nuSywymBzxhtJjgFWbkdJL7n4T8cX5QKlTHNNS1LTIlMlx4V7XhAPB-y-E0agNbE3eVkbeK-Q0LjJV6OY7R3bMcS9b0sfV98CI5_C5AMEzKhVjB4P0S5rgmV5o9EqD96ZXCWudiGLYY4LUTMNjlkZLVSWpbA3-5eKJzJw-f0tZDTSn4k6-NmwgUHzEf-aTkH0_a67w9FoVR99CK_l0J35ajHpwnCWCpZT9tCltp_xQOl-BNKXBToRg2tYIHnQi3LDMz5pkjFVimBZH4XZBuww16TdYx4xl83pyuDwiIXotquJ9oTFqp9l_qyTtJxDpFm_JKqJUPpv5m00]--></g></svg>