<svg xmlns="http://www.w3.org/2000/svg" xmlns:xlink="http://www.w3.org/1999/xlink" contentStyleType="text/css" data-diagram-type="STATE" height="870px" preserveAspectRatio="none" style="width:861px;height:870px;background:#FFFFFF;" version="1.1" viewBox="0 0 861 870" width="861px" zoomAndPan="magnify"><title>&lt;font size="16"&gt;Diagrama de Estados - Ciclo de Vida da Fatura&lt;/font&gt;</title><defs/><g><g class="title" data-source-line="2"><text fill="#000000" font-family="sans-serif" font-size="16" font-weight="bold" lengthAdjust="spacing" textLength="418.8594" x="214.196" y="24.8516">Diagrama de Estados - Ciclo de Vida da Fatura</text></g><path d="M231.5,142.625 L455.4082,142.625 A12.5,12.5 0 0 1 467.9082,155.125 L467.9082,168.9219 L219,168.9219 L219,155.125 A12.5,12.5 0 0 1 231.5,142.625" fill="#98FB98"/><rect fill="none" height="98.2969" rx="12.5" ry="12.5" style="stroke:#008000;stroke-width:0.5;" width="248.9082" x="219" y="142.625"/><line style="stroke:#008000;stroke-width:0.5;" x1="219" x2="467.9082" y1="168.9219" y2="168.9219"/><text fill="#000000" font-family="sans-serif" font-size="14" lengthAdjust="spacing" textLength="46.9014" x="320.0034" y="160.6201">Aberta</text><g id="Aberta.do / Aceitar novas transa&#231;&#245;es"><rect fill="#98FB98" height="50" rx="12.5" ry="12.5" style="stroke:#008000;stroke-width:0.5;" width="227.9082" x="231" y="180.9219"/><line style="stroke:#008000;stroke-width:0.5;" x1="231" x2="458.9082" y1="207.2188" y2="207.2188"/><text fill="#000000" font-family="sans-serif" font-size="14" lengthAdjust="spacing" textLength="207.9082" x="241" y="198.917">do / Aceitar novas transa&#231;&#245;es</text></g><path d="M96.5,317.625 L590.0742,317.625 A12.5,12.5 0 0 1 602.5742,330.125 L602.5742,343.9219 L84,343.9219 L84,330.125 A12.5,12.5 0 0 1 96.5,317.625" fill="#98FB98"/><rect fill="none" height="98.2969" rx="12.5" ry="12.5" style="stroke:#008000;stroke-width:0.5;" width="518.5742" x="84" y="317.625"/><line style="stroke:#008000;stroke-width:0.5;" x1="84" x2="602.5742" y1="343.9219" y2="343.9219"/><text fill="#000000" font-family="sans-serif" font-size="14" lengthAdjust="spacing" textLength="59.2813" x="313.6465" y="335.6201">Fechada</text><g id="Fechada.entry / Calcular valor total final"><rect fill="#98FB98" height="50" rx="12.5" ry="12.5" style="stroke:#008000;stroke-width:0.5;" width="238.2715" x="96" y="355.9219"/><line style="stroke:#008000;stroke-width:0.5;" x1="96" x2="334.2715" y1="382.2188" y2="382.2188"/><text fill="#000000" font-family="sans-serif" font-size="14" lengthAdjust="spacing" textLength="218.2715" x="106" y="373.917">entry / Calcular valor total final</text></g><g id="Fechada.do / Bloquear novas transa&#231;&#245;es"><rect fill="#98FB98" height="50" rx="12.5" ry="12.5" style="stroke:#008000;stroke-width:0.5;" width="241.0742" x="352.5" y="355.9219"/><line style="stroke:#008000;stroke-width:0.5;" x1="352.5" x2="593.5742" y1="382.2188" y2="382.2188"/><text fill="#000000" font-family="sans-serif" font-size="14" lengthAdjust="spacing" textLength="221.0742" x="362.5" y="373.917">do / Bloquear novas transa&#231;&#245;es</text></g><path d="M19.5,492.625 L289.5234,492.625 A12.5,12.5 0 0 1 302.0234,505.125 L302.0234,518.9219 L7,518.9219 L7,505.125 A12.5,12.5 0 0 1 19.5,492.625" fill="#98FB98"/><rect fill="none" height="98.2969" rx="12.5" ry="12.5" style="stroke:#008000;stroke-width:0.5;" width="295.0234" x="7" y="492.625"/><line style="stroke:#008000;stroke-width:0.5;" x1="7" x2="302.0234" y1="518.9219" y2="518.9219"/><text fill="#000000" font-family="sans-serif" font-size="14" lengthAdjust="spacing" textLength="56.1162" x="126.4536" y="510.6201">Vencida</text><g id="Vencida.entry / Marcar como pendente na UI"><rect fill="#98FB98" height="50" rx="12.5" ry="12.5" style="stroke:#008000;stroke-width:0.5;" width="274.0234" x="19" y="530.9219"/><line style="stroke:#008000;stroke-width:0.5;" x1="19" x2="293.0234" y1="557.2188" y2="557.2188"/><text fill="#000000" font-family="sans-serif" font-size="14" lengthAdjust="spacing" textLength="254.0234" x="29" y="548.917">entry / Marcar como pendente na UI</text></g><path d="M272,667.625 L545.0723,667.625 A12.5,12.5 0 0 1 557.5723,680.125 L557.5723,693.9219 L259.5,693.9219 L259.5,680.125 A12.5,12.5 0 0 1 272,667.625" fill="#98FB98"/><rect fill="none" height="98.2969" rx="12.5" ry="12.5" style="stroke:#008000;stroke-width:0.5;" width="298.0723" x="259.5" y="667.625"/><line style="stroke:#008000;stroke-width:0.5;" x1="259.5" x2="557.5723" y1="693.9219" y2="693.9219"/><text fill="#000000" font-family="sans-serif" font-size="14" lengthAdjust="spacing" textLength="34.4873" x="391.2925" y="685.6201">Paga</text><g id="Paga.entry / Registrar data do pagamento"><rect fill="#98FB98" height="50" rx="12.5" ry="12.5" style="stroke:#008000;stroke-width:0.5;" width="277.0723" x="271.5" y="705.9219"/><line style="stroke:#008000;stroke-width:0.5;" x1="271.5" x2="548.5723" y1="732.2188" y2="732.2188"/><text fill="#000000" font-family="sans-serif" font-size="14" lengthAdjust="spacing" textLength="257.0723" x="281.5" y="723.917">entry / Registrar data do pagamento</text></g><ellipse cx="343.5" cy="55.625" fill="#222222" rx="10" ry="10" style="stroke:#222222;stroke-width:1;"/><ellipse cx="408.5" cy="853.625" fill="none" rx="11" ry="11" style="stroke:#222222;stroke-width:1;"/><ellipse cx="408.5" cy="853.625" fill="#222222" rx="6" ry="6" style="stroke:#222222;stroke-width:1;"/><!--link *start* to Aberta--><g class="link" data-entity-1="*start*" data-entity-2="Aberta" data-source-line="12" data-uid="lnk3" id="link_*start*_Aberta"><path d="M343.5,65.835 C343.5,81.505 343.5,108.385 343.5,136.455" fill="none" id="*start*-to-Aberta" style="stroke:#000000;stroke-width:1;"/><polygon fill="#000000" points="343.5,142.455,347.5,133.455,343.5,137.455,339.5,133.455,343.5,142.455" style="stroke:#000000;stroke-width:1;"/><text fill="#000000" font-family="sans-serif" font-size="13" lengthAdjust="spacing" textLength="250.9292" x="344.5" y="108.6919">Evento: 1&#170; despesa do ciclo registrada</text></g><!--link Aberta to Fechada--><g class="link" data-entity-1="Aberta" data-entity-2="Fechada" data-source-line="42" data-uid="lnk4" id="link_Aberta_Fechada"><path d="M343.5,240.815 C343.5,264.715 343.5,287.495 343.5,311.395" fill="none" id="Aberta-to-Fechada" style="stroke:#000000;stroke-width:1;"/><polygon fill="#000000" points="343.5,317.395,347.5,308.395,343.5,312.395,339.5,308.395,343.5,317.395" style="stroke:#000000;stroke-width:1;"/><text fill="#000000" font-family="sans-serif" font-size="13" lengthAdjust="spacing" textLength="233.6826" x="344.5" y="283.6919">Evento: Chega o dia de fechamento</text></g><!--link Fechada to Paga--><g class="link" data-entity-1="Fechada" data-entity-2="Paga" data-source-line="45" data-uid="lnk5" id="link_Fechada_Paga"><path d="M546.66,415.685 C558,424.125 568.15,434.025 576.5,445.625 C609.53,491.515 805.91,253.875 523.5,637.625 C515.35,648.705 509.7956,654.9425 498.8256,663.8125" fill="none" id="Fechada-to-Paga" style="stroke:#000000;stroke-width:1;"/><polygon fill="#000000" points="494.16,667.585,503.6735,665.0367,498.048,664.4413,498.6435,658.8158,494.16,667.585" style="stroke:#000000;stroke-width:1;"/><text fill="#000000" font-family="sans-serif" font-size="13" lengthAdjust="spacing" textLength="224.7515" x="628.5" y="546.1919">Evento: Usu&#225;rio marca como paga</text></g><!--link Fechada to Vencida--><g class="link" data-entity-1="Fechada" data-entity-2="Vencida" data-source-line="47" data-uid="lnk6" id="link_Fechada_Vencida"><path d="M135.13,415.705 C112.46,424.645 94.62,434.665 86.5,445.625 C75.26,460.775 77.4237,472.7683 89.4937,487.8683" fill="none" id="Fechada-to-Vencida" style="stroke:#000000;stroke-width:1;"/><polygon fill="#000000" points="93.24,492.555,90.7451,483.0274,90.1181,488.6494,84.4961,488.0224,93.24,492.555" style="stroke:#000000;stroke-width:1;"/><text fill="#000000" font-family="sans-serif" font-size="13" lengthAdjust="spacing" textLength="202.23" x="87.5" y="458.6919">Evento: Sistema verifica status</text><text fill="#000000" font-family="sans-serif" font-size="13" font-weight="bold" lengthAdjust="spacing" textLength="278.2749" x="293.8623" y="458.6919">[Se Data atual &gt; Data de vencimento]</text></g><!--link Vencida to Paga--><g class="link" data-entity-1="Vencida" data-entity-2="Paga" data-source-line="50" data-uid="lnk7" id="link_Vencida_Paga"><path d="M225.25,590.815 C260.34,614.715 297.641,640.1174 332.731,664.0174" fill="none" id="Vencida-to-Paga" style="stroke:#000000;stroke-width:1;"/><polygon fill="#000000" points="337.69,667.395,332.5032,659.0226,333.5575,664.5803,327.9997,665.6346,337.69,667.395" style="stroke:#000000;stroke-width:1;"/><text fill="#000000" font-family="sans-serif" font-size="13" lengthAdjust="spacing" textLength="224.7515" x="290.5" y="633.6919">Evento: Usu&#225;rio marca como paga</text></g><!--link Paga to *end*--><g class="link" data-entity-1="Paga" data-entity-2="*end*" data-source-line="53" data-uid="lnk9" id="link_Paga_*end*"><path d="M408.5,765.985 C408.5,793.825 408.5,820.405 408.5,836.525" fill="none" id="Paga-to-*end*" style="stroke:#000000;stroke-width:1;"/><polygon fill="#000000" points="408.5,842.525,412.5,833.525,408.5,837.525,404.5,833.525,408.5,842.525" style="stroke:#000000;stroke-width:1;"/><text fill="#000000" font-family="sans-serif" font-size="13" lengthAdjust="spacing" textLength="101.7783" x="409.5" y="808.6919">Ciclo encerrado</text></g><!--SRC=[bLJDJjj04BxxAKQvq4QD49SU8Xh9IHoQGm75WGlYCBKdOOMz6tRNBgNgcIVe0rGz827bLFK5wXVhxDfk4k3GdkpzcU-RxvkPtODvjRP5fY1LC1Qur9XZO8ND20uNIbemuexUTGxUTWRjCQG4aR6OAWCz68d4HHESYvIF42Pe2us7-ovw40Hx4AvGLuyo4GZyXv1JTgKqbC8Kc8axh1wg7oemrqAwunmOsX9y2G26c5mljIfaEb8PXvnYHaUQIBepfLFIzNwx5sgjFjLRmunZWw-EVoghTIAymgHDjkHaWulk9VHw0mW_ahO8VOXAabRruU3t8ryoApAuYTAq5CPgv406xVLw4CNpS7pIXt0OpUQXsmhgt1j09u7bUtsGi1tLMXO896yAP1uWOqL96YJ_a5knfHnIOtIOU1_2X8H5lg9ADC3iqZY_Vf7frEAsyvX4e_VXk4va3sAcagWrjlmvLGy8U5E8FdHMklfvAtBLqCB2LmqMb5onmauZP58llPADb9k2G2LAQm9a0CbfFHFHgd2ddrd82BEaoFXUYQuyLbdCO24aPfqQUpTTpd0t8v2E6RqTBxe1kyODCyLf_gjpvz7nQ3hUBk4vSSCsofz8-O0wOM0sLC6APChxnAd3sVG5vDFmQ1ls59SlOiwQvj8yGTOttOflvguTjq3di_0udbRtrRSeXkXuFelW96weOi_25-iczaNAgEI2jxNrm_Utu4rfWwPNtHoqrTuCmkYAbYuc5NxgVIryKdwk7Q8LsfqqeM-0Rba7vP0Mx3exlaxvkrB6LEkIX0bQ3iVdpTYGdPcY-gvvK7DdSEClN_5Kle2YxZylf2rGIhu6BeaYTr4oRQwzMXQeKtozmzc6RMXZdp02Jw9O22PsfIaCTBiNCS7ObOFNtAs3Uk5U3mVYVRZiTfzQqJ04BTF_A6MeYSYVlrG-tW6v9wlVlBcCJpmlgVe3]--></g></svg>